<svg id="Capa_1" enable-background="new 0 0 512 512" height="512" viewBox="0 0 512 512" width="512" xmlns="http://www.w3.org/2000/svg"><circle cx="256" cy="256" fill="#fa5d0f" r="256"/><path d="m512 256c0-5.342-.183-10.64-.506-15.901l-124.808-124.808-293.602 283.403 107.21 107.21c17.935 3.98 36.572 6.096 55.706 6.096 141.385 0 256-114.615 256-256z" fill="#d13400"/><path d="m344.108 72.714-183.675 183.675-15.236 56.256 33.936 33.936 56.256-15.237 183.675-183.675z" fill="#ffce00"/><path d="m161.907 329.355 17.226 17.225 56.256-15.236 183.675-183.675-37.736-37.735z" fill="#ffa300"/><circle cx="358.5" cy="242" fill="#fff" r="68.335"/><path d="m426.835 242c0-37.717-30.556-68.294-68.264-68.333v136.667c37.708-.039 68.264-30.617 68.264-68.334z" fill="#e9edf5"/><path d="m93.084 398.694c-9.371-9.371-9.371-24.565 0-33.936l52.113-52.113 33.936 33.936-52.113 52.113c-9.371 9.371-24.565 9.371-33.936 0z" fill="#414952"/><path d="m92.839 398.423c.085.088.158.184.245.271 9.371 9.371 24.565 9.371 33.936 0l52.113-52.113-17.226-17.226z" fill="#23272b"/></svg>