<svg height="512pt" viewBox="-61 0 512 512" width="512pt" xmlns="http://www.w3.org/2000/svg"><path d="m15 15h360v482h-360zm0 0" fill="#61d7a8"/><path d="m195 15h180v482h-180zm0 0" fill="#00ab94"/><path d="m0 0v512h390v-512zm120 30h150v30h-150zm100.5 60c-5.402344 8.699219-14.398438 15-25.5 15s-20.097656-6.300781-25.5-15zm49.5 392h-150v-30h150zm-100.5-60c5.402344-8.699219 14.398438-15 25.5-15s20.097656 6.300781 25.5 15zm190.5 60h-60v-60h-47.101562c-6.597657-25.800781-30-45-57.898438-45s-51.300781 19.199219-57.898438 45h-47.101562v60h-60v-211h76.5c7.199219 42.597656 44.101562 75 88.5 75s81.300781-32.402344 88.5-75h76.5zm-107.101562-211c-6.597657 25.800781-30 45-57.898438 45s-51.300781-19.199219-57.898438-45zm-115.796876-30c6.597657-25.800781 30-45 57.898438-45s51.300781 19.199219 57.898438 45zm222.898438 0h-76.5c-7.199219-42.597656-44.101562-75-88.5-75s-81.300781 32.402344-88.5 75h-76.5v-211h60v60h47.101562c6.597657 25.800781 30 45 57.898438 45s51.300781-19.199219 57.898438-45h47.101562v-60h60zm0 0" fill="#deecf1"/><path d="m390 0v512h-195v-30h75v-30h-75v-30h25.5c-5.402344-8.699219-14.398438-15-25.5-15v-30c27.898438 0 51.300781 19.199219 57.898438 45h47.101562v60h60v-211h-76.5c-7.199219 42.597656-44.101562 75-88.5 75v-30c27.898438 0 51.300781-19.199219 57.898438-45h-57.898438v-30h57.898438c-6.597657-25.800781-30-45-57.898438-45v-30c44.398438 0 81.300781 32.402344 88.5 75h76.5v-211h-60v60h-47.101562c-6.597657 25.800781-30 45-57.898438 45v-30c11.101562 0 20.097656-6.300781 25.5-15h-25.5v-30h75v-30h-75v-30zm0 0" fill="#c5d3dd"/></svg>