<svg viewBox="0 0 512 512" xmlns="http://www.w3.org/2000/svg"><path d="m512 256c0 141.386719-114.613281 256-256 256s-256-114.613281-256-256 114.613281-256 256-256 256 114.613281 256 256zm0 0" fill="#f92814"/><path d="m512 256c0-4.707031-.136719-9.382812-.386719-14.023438l-58.113281-58.113281-74.746094 59.902344-65.101562-65.101563-255.152344 88.335938 156.960938 156.960938-30.710938 27.800781 59.976562 59.976562c3.738282.164063 7.496094.261719 11.273438.261719 141.386719 0 256-114.613281 256-256zm0 0" fill="#db0404"/><path d="m184.75 451.761719 63.632812 8.203125 26.015626-215.453125-63.636719-8.203125zm0 0" fill="#636978"/><path d="m325.894531 451.765625-64.464843 8.308594-25.992188-215.453125 64.464844-8.3125zm0 0" fill="#555a66"/><path d="m325.894531 451.765625-25.992187-215.457031-44.296875 5.710937v169.773438l5.824219 48.28125zm0 0" fill="#414952"/><path d="m58.5 183.863281h395v83.136719h-395zm0 0" fill="#414952"/><path d="m255.605469 183.863281h197.894531v83.136719h-197.894531zm0 0" fill="#23272b"/><path d="m198.347656 178.667969h115.304688v92h-115.304688zm0 0" fill="#333940"/><path d="m255.605469 178.667969h58.046875v92h-58.046875zm0 0" fill="#23272b"/></svg>