<?xml version="1.0"?>
<svg xmlns="http://www.w3.org/2000/svg" viewBox="0 0 64 64" width="512" height="512"><g id="Filled_outline" data-name="Filled outline"><polygon points="44 34 39 39 33 39 16 22 24 14 44 34" style="fill:#e8b458"/><circle cx="12" cy="10" r="7" style="fill:#ffd782"/><path d="M33,39h6a0,0,0,0,1,0,0V58a3,3,0,0,1-3,3h0a3,3,0,0,1-3-3V39A0,0,0,0,1,33,39Z" style="fill:#ffd782"/><path d="M58,16h0a2.828,2.828,0,0,1,0,4L44,34l-4-4L54,16A2.828,2.828,0,0,1,58,16Z" style="fill:#ffd782"/><path d="M22,28l-6-6V34H29a3,3,0,0,0,3-3h0a3,3,0,0,0-3-3Z" style="fill:#ffd782"/><path d="M36,9v5H24l6,6H42V9a3,3,0,0,0-3-3h0A3,3,0,0,0,36,9Z" style="fill:#ffd782"/><path d="M14.524,3.476a7.01,7.01,0,0,1,2.9,2.1L7.577,15.423a7.01,7.01,0,0,1-2.1-2.9Z" style="fill:#dd3e46"/><rect x="30" y="14" width="4" height="6" style="fill:#dd3e46"/><rect x="48.172" y="20.172" width="5.657" height="5.657" transform="translate(-1.326 42.799) rotate(-45)" style="fill:#dd3e46"/><rect x="33" y="50" width="6" height="5" style="fill:#dd3e46"/><polygon points="29 35 37 27 44 34 39 39 33 39 29 35" style="fill:#dd3e46"/><rect x="28.843" y="30.379" width="11.314" height="4.243" transform="translate(-12.876 33.914) rotate(-45)" style="fill:#5a6470"/><path d="M49.707,14.707l-1.414-1.414c6.556-6.559,12.274-2.12,12.332-2.074L59.38,12.784C59.2,12.646,54.966,9.447,49.707,14.707Z" style="fill:#cfdfe8"/><path d="M46.707,11.707l-1.414-1.414c8.5-8.5,16.212-3.162,16.288-3.106L60.422,8.816C60.163,8.635,53.978,4.438,46.707,11.707Z" style="fill:#cfdfe8"/><path d="M20,10a8,8,0,1,0-8,8A8.009,8.009,0,0,0,20,10ZM7.562,14.024a6.039,6.039,0,0,1-.892-1.28L14.744,4.67a6.028,6.028,0,0,1,1.28.892ZM12,4c.188,0,.374.011.558.028l-6.53,6.53C6.011,10.374,6,10.188,6,10A6.006,6.006,0,0,1,12,4Zm0,12a5.959,5.959,0,0,1-2.859-.726L17.273,7.14A6,6,0,0,1,12,16Z"/><path d="M53.293,15.293,40,28.586,32.414,21H42a1,1,0,0,0,1-1V9a4,4,0,0,0-8,0v4H24a1,1,0,0,0-.707.293l-8,8a.99.99,0,0,0-.217.326A1.01,1.01,0,0,0,15,22V34a1,1,0,0,0,1,1H27.586l.707.707L32,39.414V58a4,4,0,0,0,8,0V39.414L58.707,20.707a3.828,3.828,0,0,0-5.414-5.414ZM47,24.414,49.586,27,44,32.586,41.414,30ZM29,17.586,26.414,15H29ZM31,15h2v4H31Zm5,0a1,1,0,0,0,1-1V9a2,2,0,0,1,4,0V19H35V15Zm-12,.414L35.586,27l-2.793,2.792A3.991,3.991,0,0,0,29,27H22.414l-5-5Zm-7,9,4.292,4.292A1.012,1.012,0,0,0,22,29h7a2,2,0,0,1,0,4H17ZM30.935,34.479a4.005,4.005,0,0,0,1.544-1.544L37,28.414,38.586,30,32,36.586,30.414,35ZM38,49H34V40h4Zm0,5H34V51h4Zm-2,6a2,2,0,0,1-2-2V56h4v2A2,2,0,0,1,36,60Zm2.586-22H33.414L40,31.414,42.586,34ZM51,25.586,48.414,23,51,20.414,53.586,23Zm6.293-6.293L55,21.586,52.414,19l2.293-2.293a1.829,1.829,0,0,1,2.586,2.586Z"/><path d="M48.293,13.293l1.414,1.414c5.259-5.26,9.495-2.061,9.673-1.923l1.245-1.565C60.567,11.173,54.849,6.734,48.293,13.293Z"/><path d="M60.422,8.816l1.159-1.629c-.076-.056-7.788-5.394-16.288,3.106l1.414,1.414C53.978,4.438,60.163,8.635,60.422,8.816Z"/></g></svg>
