<svg id="Capa_1" enable-background="new 0 0 497.051 497.051" height="512" viewBox="0 0 497.051 497.051" width="512" xmlns="http://www.w3.org/2000/svg"><path d="m492.929 495.281h-489.225c-2.045 0-3.704-1.658-3.704-3.704v-170.736c0-2.045 1.658-3.704 3.704-3.704h489.225c2.045 0 3.704 1.658 3.704 3.704v170.737c-.001 2.045-1.659 3.703-3.704 3.703z" fill="#08a9f1"/><path d="m0 362.603h496.632v30.188h-496.632z" fill="#f2fbff"/><path d="m92.865 379.625h28.139v115.657h-28.139z" fill="#f2fbff"/><path d="m443.84 200.149 24.553-95.786-32.212-18.86-82.714 42.589-17.638 8.786 30.947 13.828 20.711-10.656 37.328-19.221 10.218 8.147-10.426 40.671-4.825 19.908 19.897 31.829z" fill="#fb2b3a"/><path d="m434.72 260.617-27.922-22.263 24.046-30.158c2.582-3.238 2.05-7.958-1.188-10.54-3.24-2.583-7.957-2.052-10.54 1.188l-24.046 30.158-24.266-19.347 27.837-34.912c2.582-3.238 2.05-7.957-1.188-10.54-3.239-2.583-7.957-2.051-10.54 1.188l-27.837 34.912-24.265-19.347 21.752-27.282c2.582-3.239 2.05-7.958-1.188-10.54-3.24-2.583-7.959-2.051-10.54 1.188l-21.751 27.282-27.39-21.839c-3.24-2.583-7.958-2.051-10.54 1.188s-2.05 7.958 1.188 10.54l27.391 21.839-6.229 7.813-11.623 14.649-37.791-30.132c-3.239-2.583-7.957-2.052-10.54 1.188-2.582 3.239-2.05 7.958 1.188 10.54l37.819 30.154-16.328 20.58-38.202-30.46c-3.239-2.583-7.957-2.051-10.54 1.188-2.582 3.239-2.05 7.958 1.188 10.54l38.23 30.482-16.328 20.579-37.399-29.819c-3.24-2.583-7.957-2.051-10.54 1.188-2.582 3.239-2.05 7.958 1.188 10.54l37.427 29.842-16.328 20.579-28.929-23.066c-3.24-2.583-7.957-2.051-10.54 1.188-2.582 3.238-2.05 7.958 1.188 10.54l28.958 23.089-22.591 28.474c-2.575 3.244-2.031 7.962 1.214 10.536 1.378 1.095 3.023 1.625 4.656 1.625 2.21 0 4.399-.973 5.88-2.839l22.569-28.445 23.97 19.112-31.011 38.894c-2.582 3.238-2.05 7.957 1.188 10.54 1.382 1.102 3.032 1.636 4.671 1.636 2.204 0 4.388-.967 5.869-2.824l31.011-38.894 24.265 19.348-22.382 28.071c-2.582 3.239-2.05 7.958 1.188 10.54 1.382 1.102 3.031 1.636 4.671 1.636 2.204 0 4.388-.967 5.869-2.824l22.382-28.071 30.597 24.396c1.382 1.102 3.031 1.636 4.671 1.636 2.204 0 4.388-.967 5.869-2.824 2.582-3.238 2.05-7.958-1.188-10.54l-30.597-24.396 16.377-20.54 39.924 31.833c1.382 1.102 3.031 1.636 4.671 1.636 2.204 0 4.388-.967 5.869-2.824 2.582-3.239 2.05-7.958-1.188-10.54l-39.926-31.831 16.377-20.54 40.877 32.593c1.382 1.102 3.031 1.636 4.671 1.636 2.204 0 4.388-.967 5.869-2.824 2.582-3.238 2.05-7.958-1.188-10.54l-40.877-32.593 16.378-20.541 41.506 33.094c1.382 1.102 3.031 1.636 4.671 1.636 2.204 0 4.388-.967 5.869-2.824 2.582-3.239 2.05-7.958-1.188-10.54l-41.506-33.094 17.888-22.435 27.922 22.263c1.382 1.102 3.031 1.636 4.671 1.636 2.204 0 4.388-.967 5.869-2.824 2.581-3.24 2.049-7.959-1.189-10.541zm-115.48-60.133 6.218-7.799 24.265 19.347-17.888 22.435-24.23-19.319zm-20.958 26.415 24.202 19.297-16.378 20.541-24.152-19.258zm-25.652 32.33 24.124 19.235-16.377 20.54-24.075-19.196zm-41.979 52.91 16.328-20.579 24.047 19.173-16.377 20.54zm59.992 47.833-24.265-19.348 16.377-20.54 24.265 19.348zm25.728-32.268-24.265-19.348 16.377-20.54 24.265 19.348zm25.729-32.269-24.265-19.348 16.378-20.541 24.265 19.348zm25.729-32.269-24.265-19.348 17.888-22.435 24.266 19.347z" fill="#ebebeb"/><path d="m387.487 140.05 20.74-10.679c-9.157-5.975-18.846-10.848-28.945-14.57l-25.814 13.292-17.639 8.786 30.948 13.828z" fill="#c41926"/><path d="m451.044 172.044c-5.879-9.012-12.789-17.391-20.645-24.992l-5.792 22.595-4.826 19.908 19.897 31.829 4.161-21.234z" fill="#c41926"/><path d="m452.768 237.538c-3.729-33.063-20.109-62.696-46.125-83.438-22.297-17.778-49.122-27.175-77.577-27.175-38.176 0-73.704 17.1-97.476 46.914l-32.89 41.25-10.066 12.828c-20.141 25.673-29.324 57.678-25.859 90.118 3.465 32.444 19.198 61.787 44.301 82.62l1.792 1.488.243.192c22.248 17.651 48.99 26.981 77.338 26.981 38.176 0 73.704-17.099 97.475-46.912l42.459-53.251c20.743-26.014 30.114-58.55 26.385-91.615zm-48.277 74.159-42.459 53.251c-18.429 23.113-45.978 36.369-75.582 36.369-21.968 0-42.686-7.231-59.934-20.917l-1.553-1.289c-19.46-16.15-31.659-38.898-34.345-64.05s4.434-49.962 20.047-69.862l9.93-12.656 32.889-41.25c18.429-23.113 45.978-36.37 75.583-36.37 22.046 0 42.836 7.285 60.122 21.067 20.167 16.08 32.866 39.053 35.757 64.684 2.889 25.633-4.375 50.856-20.455 71.023z" fill="#fe646f"/><path d="m270.516 402.336-.243-.192-1.792-1.488c-.519-.431-1.027-.87-1.538-1.308-14.662-3-28.392-9.396-40.429-18.947l-1.553-1.289c-19.46-16.15-31.659-38.898-34.345-64.05s4.434-49.962 20.047-69.862l9.93-12.656 32.889-41.25c14.235-17.853 33.914-29.818 55.776-34.343 14.616-12.589 31.867-21.535 50.501-26.229-9.913-2.509-20.19-3.798-30.693-3.798-38.176 0-73.704 17.1-97.476 46.914l-32.89 41.25-10.066 12.828c-20.141 25.673-29.324 57.678-25.859 90.118 3.465 32.444 19.198 61.787 44.301 82.62l1.792 1.488.243.192c22.248 17.651 48.99 26.981 77.338 26.981 10.501 0 20.799-1.301 30.71-3.797-16.848-4.263-32.637-12.07-46.643-23.182z" fill="#fb2b3a"/><path d="m497.051 80.013c0 1.152-.394 2.269-1.116 3.167l-22.251 27.664c-4.156 5.212-11.75 6.068-16.962 1.913l-21.607-17.228c-5.212-4.156-6.068-11.75-1.913-16.962l60.935-76.18c.966-1.208 2.913-.525 2.913 1.022v76.604z" fill="#fe646f"/><path d="m451.783 101.301 45.268-56.594v-41.299c0-1.546-1.947-2.229-2.913-1.022l-60.935 76.18c-4.156 5.212-3.3 12.806 1.913 16.962l14.201 11.323c.324-1.966 1.135-3.881 2.466-5.55z" fill="#fb2b3a"/><circle cx="108.007" cy="341.919" fill="#00f2a6" r="62.529"/><path d="m108.008 341.919c0-23.141 12.58-43.33 31.265-54.143-9.199-5.324-19.871-8.386-31.265-8.386-34.534 0-62.53 27.995-62.53 62.529s27.995 62.529 62.53 62.529c11.393 0 22.065-3.062 31.265-8.386-18.686-10.813-31.265-31.003-31.265-54.143z" fill="#05e39c"/><path d="m139.643 287.988-1.471 1.558c-11.276 11.316-17.484 26.342-17.484 42.32v10.052c0 6.992-5.688 12.681-12.68 12.681s-12.681-5.688-12.681-12.681v-14.244c0-15.433-5.804-29.963-16.355-41.132-4.512 2.371-8.697 5.273-12.474 8.629l.44.479c.072.079.146.156.222.231 8.491 8.49 13.168 19.781 13.168 31.792v14.244c0 15.263 12.418 27.681 27.681 27.681s27.68-12.418 27.68-27.681v-10.052c0-12.009 4.677-23.3 13.17-31.792.051-.051.101-.103.149-.155l2.624-2.78c-3.603-3.508-7.626-6.585-11.989-9.15z" fill="#fef1da"/><path d="m114.131 368.908c-2.168-4.518-3.815-9.333-4.848-14.373-.42.042-.845.065-1.275.065-6.992 0-12.681-5.688-12.681-12.681v-14.244c0-15.433-5.804-29.963-16.355-41.132-.001.001-.002.001-.003.002-3.335 1.752-6.489 3.799-9.434 6.101-.085.066-.169.132-.253.199-.948.749-1.877 1.522-2.78 2.324-.001.001-.003.002-.004.004l.44.479c.072.079.146.156.222.231 8.491 8.49 13.168 19.781 13.168 31.792v14.244c0 15.263 12.418 27.681 27.681 27.681 2.103-.001 4.151-.245 6.122-.692z" fill="#fae2c0"/><g fill="#6bd9e7"><path d="m68.727 272.371c-3.347 0-6.396-2.256-7.262-5.648-13.488-52.88-50.366-70.142-51.93-70.851-3.762-1.706-5.449-6.14-3.757-9.908s6.099-5.465 9.876-3.787c1.829.813 44.981 20.609 60.346 80.839 1.023 4.014-1.4 8.097-5.414 9.121-.62.158-1.244.234-1.859.234z"/><path d="m105.187 248.985c-3.347 0-6.396-2.257-7.262-5.648-1.387-5.439-3.097-10.752-5.08-15.791-1.518-3.854.377-8.208 4.231-9.726 3.852-1.521 8.208.376 9.726 4.231 2.213 5.619 4.116 11.533 5.658 17.578 1.023 4.014-1.4 8.097-5.414 9.121-.621.159-1.244.235-1.859.235z"/><path d="m88.185 209.632c-2.45 0-4.853-1.199-6.29-3.406-15.968-24.501-35.701-33.649-35.898-33.739-3.763-1.706-5.45-6.14-3.758-9.908s6.099-5.466 9.876-3.787c.964.429 23.824 10.822 42.347 39.245 2.262 3.47 1.282 8.116-2.188 10.378-1.264.823-2.684 1.217-4.089 1.217z"/></g></svg>