<svg height="512" viewBox="0 0 48 58" width="512" xmlns="http://www.w3.org/2000/svg"><g id="024---Crazy-Golf" fill="none"><path id="Shape" d="m38 45h3.24c.4563699-.0195036.8679485.2727171 1 .71l5.4 11c.0943781.3103621.0323443.6472211-.1664016.9036034-.198746.2563823-.5095075.4004291-.8335984.3863966h-45.3c-.3240909.0140325-.63485243-.1300143-.83359838-.3863966s-.26077969-.5932413-.16640162-.9036034l5.4-11c.13205152-.4372829.54363007-.7295036 1-.71z" fill="#4c8056"/><path id="Shape" d="m35.85 45h2.74c.4002241.0244891.7332879.3164339.81.71l4.56 11c.0880732.27965.0489849.5838629-.1069248.8321635s-.412932.4156713-.7030752.4578365h-38.3c-.29742697-.0315013-.56513941-.1944789-.72970223-.4442272-.16456283-.2497483-.20869756-.5600446-.12029777-.8457728l4.56-11c.07671209-.3935661.40977592-.6855109.81-.71z" fill="#71c285"/><path id="Shape" d="m9.85 27.63-.43 2.17c-.07726101.3787619.07069941.7681315.38 1l.58 12.2-1 4.8c-.06083656.2977192.01699903.6069489.21153276.8403894.19453372.2334404.48465814.3657628.78846724.3596106h27.22c.3038091.0061522.5939335-.1261702.7884672-.3596106.1945338-.2334405.2723694-.5426702.2115328-.8403894l-1-4.8c.3038091.0061522.5939335-.1261702.7884672-.3596106.1945338-.2334405.2723694-.5426702.2115328-.8403894l-.5-2.51 2.9-13.29-16-17z" fill="#e64c3c"/><path id="Shape" d="m28 49h-8v-4c0-2.209139 1.790861-4 4-4s4 1.790861 4 4z" fill="#393f4a"/><path id="Shape" d="m4.46 26c-.97754396.977544-.97754393 2.562456.00000005 3.5399999.97754399.977544 2.56245593.9775441 3.53999995.0000001 5.77-5.8 9.84-10.15 16-16.5.88.91 11.17 11.51 12 12.42l8 3.32c.4303483-.9334413.2480871-2.0349329-.46-2.78-21.17-21.47-13.92-14.39-17.77-18.27-.4690213-.4702085-1.1058637-.73446892-1.77-.73446892s-1.3009787.26426042-1.77.73446892c-15.4 15.53-5.54 5.79-17.77 18.27z" fill="#802f34"/><g fill="#f3d55b"><path id="Shape" d="m2.59 11.6 2.3-5.54c.43137339-1.01003625 1.59652921-1.48324129 2.61-1.06l9.24 3.8c1.0178306.42363105 1.5008941 1.5910346 1.08 2.61l-2.29 5.59-7.53-1z"/><path id="Shape" d="m30.18 33.85 2.29-5.54 6.53.69 6.41 4.66-2.3 5.55c-.4236311 1.0178306-1.5910346 1.5008941-2.61 1.08l-9.24-3.83c-1.0178306-.4236311-1.5008941-1.5910346-1.08-2.61z"/><path id="Shape" d="m13 44-5.55-2.3c-1.01783057-.4236311-1.5008941-1.5910346-1.08-2.61l3.83-9.24c.4236311-1.0178306 1.5910346-1.5008941 2.61-1.08l5.55 2.29-.36 6.94z"/><path id="Shape" d="m35.22 16.45-5.55-2.29.33-7.16 5-5.78 5.55 2.3c1.0178306.42363105 1.5008941 1.5910346 1.08 2.61l-3.83 9.24c-.4234502 1.0014624-1.5694038 1.4811639-2.58 1.08z"/></g><path id="Shape" d="m26.7 21.33 8.3-20.11-2.74-1.14c-.4967141-.18147693-1.0488529.05515398-1.26.54 0 .1-7.74 18.72-7.94 19.19l-.31.12c-10.57-4.37 14.64 6.07-20.16-8.33l-1.15 2.77c-.10152675.2477984-.09942422.5259642.00583671.7721996s.30488453.4399647.55416329.5378004c19.41 8 19.09 8 19.19 8l.12.3-8.31 20.02 2.77 1.15c.2452731.102641.5213244.1033783.7671422.0020488.2458179-.1013295.4411618-.2963823.5428578-.5420488 8.05-19.35 7.92-19.06 7.92-19.16l.31-.12c9 3.75 4.57 1.91 20.11 8.33l1.15-2.77c.2059887-.5108544-.0399216-1.092097-.55-1.3-19.41-8-19.09-7.95-19.19-7.95z" fill="#f5efca"/><circle id="Oval" cx="24" cy="22.63" fill="#95a5a5" r="3"/><circle id="Oval" cx="24" cy="22.63" fill="#393f4a" r="1.37"/><circle id="Oval" cx="35" cy="55" fill="#f5efca" r="3"/></g></svg>