<svg height="512pt" viewBox="0 -9 512 512" width="512pt" xmlns="http://www.w3.org/2000/svg"><g fill="#7f8c8d"><path d="m25.601562 102.398438h-17.066406c-4.714844 0-8.535156-3.820313-8.535156-8.53125 0-4.714844 3.820312-8.535157 8.535156-8.535157h17.066406c4.710938 0 8.53125 3.820313 8.53125 8.535157 0 4.710937-3.820312 8.53125-8.53125 8.53125zm0 0"/><path d="m503.464844 102.398438h-17.066406c-4.710938 0-8.53125-3.820313-8.53125-8.53125 0-4.714844 3.820312-8.535157 8.53125-8.535157h17.066406c4.714844 0 8.535156 3.820313 8.535156 8.535157 0 4.710937-3.820312 8.53125-8.535156 8.53125zm0 0"/><path d="m418.132812 102.398438h-324.265624c-4.714844 0-8.535157-3.820313-8.535157-8.53125 0-4.714844 3.820313-8.535157 8.535157-8.535157h324.265624c4.714844 0 8.535157 3.820313 8.535157 8.535157 0 4.710937-3.820313 8.53125-8.535157 8.53125zm0 0"/></g><path d="m99.328125 289.367188-5.546875 79.527343-13.226562 5.207031c-17.554688 6.902344-37.382813-1.730468-44.289063-19.285156-6.902344-17.554687 1.730469-37.382812 19.285156-44.289062l13.738281-5.375c10.503907-4.269532 20.566407-9.558594 30.039063-15.785156zm0 0" fill="#fdd7ad"/><path d="m315.734375 93.867188-1.777344 261.6875-65.210937-82.574219c4.414062-.671875 7.566406-4.628907 7.230468-9.082031-.335937-4.453126-4.042968-7.894532-8.511718-7.898438h-49.066406l49.066406-78.675781v-83.457031c0-18.851563 15.285156-34.132813 34.136718-34.132813 18.851563 0 34.132813 15.28125 34.132813 34.132813zm0 0" fill="#f9c795"/><path d="m300.375 479.742188c-.96875 8.648437-8.28125 15.191406-16.984375 15.191406h-157.523437c-8.535157.007812-15.761719-6.304688-16.898438-14.761719l-15.101562-111.277344h-.085938l5.546875-79.527343c4.351563-2.816407 8.535156-5.632813 12.800781-8.621094 7.148438-5.015625 15.671875-7.699219 24.40625-7.679688h46.929688c1.429687.003906 2.851562-.082031 4.269531-.253906.019531.019531.050781.035156.085937.035156.03125 0 .0625-.015625.082032-.035156l.429687-.597656 10.066407-16.214844h49.066406c4.46875.003906 8.175781 3.445312 8.511718 7.898438.335938 4.453124-2.816406 8.410156-7.230468 9.082031l55.609375 56.527343c7.199219 7.320313 10.722656 17.492188 9.59375 27.699219zm0 0" fill="#5d4c72"/><path d="m76.800781 0c9.425781 0 17.066407 7.640625 17.066407 17.066406v153.601563c0 9.425781-7.640626 17.066406-17.066407 17.066406s-17.066406-7.640625-17.066406-17.066406v-153.601563c0-9.425781 7.640625-17.066406 17.066406-17.066406zm0 0" fill="#95a5a5"/><path d="m42.667969 25.601562c9.425781 0 17.066406 7.640626 17.066406 17.066407v102.398437c0 9.425782-7.640625 17.066406-17.066406 17.066406s-17.066407-7.640624-17.066407-17.066406v-102.398437c0-9.425781 7.640626-17.066407 17.066407-17.066407zm0 0" fill="#bdc3c7"/><path d="m435.199219 187.734375c-9.425781 0-17.066407-7.640625-17.066407-17.066406v-153.601563c0-9.425781 7.640626-17.066406 17.066407-17.066406s17.066406 7.640625 17.066406 17.066406v153.601563c0 9.425781-7.640625 17.066406-17.066406 17.066406zm0 0" fill="#95a5a5"/><path d="m469.332031 162.132812c-9.425781 0-17.066406-7.640624-17.066406-17.066406v-102.398437c0-9.425781 7.640625-17.066407 17.066406-17.066407s17.066407 7.640626 17.066407 17.066407v102.398437c0 9.425782-7.640626 17.066406-17.066407 17.066406zm0 0" fill="#bdc3c7"/><path d="m256 264.535156c-.027344 4.207032-3.097656 7.78125-7.253906 8.445313-.421875.070312-.851563.101562-1.28125.085937h-55.464844c-1.269531-.019531-2.519531-.308594-3.667969-.851562-2.980469-1.394532-4.882812-4.390625-4.867187-7.679688.015625-4.710937 3.828125-8.523437 8.535156-8.535156h55.464844c4.710937.011719 8.523437 3.824219 8.535156 8.535156zm0 0" fill="#3d324c"/><path d="m256 209.066406c0 1.425782-.085938 2.851563-.257812 4.265625-2.152344 33.617188-30.058594 59.765625-63.742188 59.734375-1.425781 0-2.851562-.085937-4.265625-.253906-12.398437-.703125-24.296875-5.136719-34.132813-12.714844-24.019531-18.082031-32.199218-50.453125-19.652343-77.769531 12.542969-27.320313 42.425781-42.210937 71.792969-35.777344 29.367187 6.433594 50.285156 32.453125 50.257812 62.515625zm0 0" fill="#fdd7ad"/></svg>