<?xml version="1.0" encoding="iso-8859-1"?>
<!-- Generator: Adobe Illustrator 19.0.0, SVG Export Plug-In . SVG Version: 6.00 Build 0)  -->
<svg version="1.1" id="Layer_1" xmlns="http://www.w3.org/2000/svg" xmlns:xlink="http://www.w3.org/1999/xlink" x="0px" y="0px"
	 viewBox="0 0 512 512" style="enable-background:new 0 0 512 512;" xml:space="preserve">
<path style="fill:#FFC855;" d="M317.076,512c-59.336,0-111.93-29.431-143.957-74.449C82.318,406.146,16.938,319.81,16.938,218.492
	v-33.112h17.655v33.112c0,85.725,50.673,159.844,123.642,193.992c-10.91-22.397-17.219-47.439-17.685-73.879h-0.025l0.039-3.155
	c0.776-29.879,12.522-58.051,33.271-79.656c21.755-22.638,50.677-35.104,81.448-35.104c0.018,0,0.034,0,0.052,0
	c63.22,0.025,114.681,51.491,114.707,114.716c0.013,30.784-12.448,59.724-35.091,81.492c-22.348,21.482-51.75,33.31-82.788,33.31
	h-3.439c-15.767,0-31.159-1.578-46.051-4.595c28.927,30.026,69.522,48.733,114.404,48.733c87.616,0,158.897-71.285,158.897-158.897
	V141.241h17.655v194.207C493.628,432.802,414.426,512,317.076,512z M184.305,422.655c20.337,6.431,41.983,9.897,64.418,9.897h3.439
	c26.453,0,51.513-10.078,70.556-28.388c19.143-18.397,29.681-42.819,29.668-68.759c-0.022-53.492-43.564-97.035-97.06-97.06
	c-0.013,0-0.03,0-0.043,0c-25.922,0-50.323,10.543-68.715,29.681c-17.983,18.716-28.03,43.233-28.38,69.173
	C158.53,368.715,168.094,398.06,184.305,422.655z"/>
<rect x="16.938" y="185.379" style="fill:#FFB44B;" width="17.655" height="26.483"/>
<path style="fill:#FFC855;" d="M317.076,512c-96.298,0-174.84-77.5-176.526-173.405h-0.025l0.039-3.147
	c0.776-29.879,12.518-58.06,33.271-79.656c21.756-22.637,50.678-35.103,81.449-35.103c0.018,0,0.034,0,0.052,0
	c63.22,0.018,114.681,51.474,114.707,114.707h-17.655c-0.022-53.5-43.564-97.035-97.06-97.052c-0.013,0-0.025,0-0.039,0
	c-25.927,0-50.327,10.535-68.719,29.681c-17.983,18.716-28.03,43.233-28.38,69.164c0.94,86.819,71.853,157.155,158.888,157.155
	c87.616,0,158.897-71.285,158.897-158.897V141.241h17.655v194.207C493.628,432.802,414.426,512,317.076,512z"/>
<g>
	<rect x="475.973" y="141.241" style="fill:#FFB44B;" width="17.655" height="26.483"/>
	<path style="fill:#FFB44B;" d="M158.236,412.483c-5.448-2.549-10.724-5.389-15.912-8.372c3.218,8.891,6.982,17.521,11.521,25.685
		c6.296,2.837,12.695,5.481,19.274,7.756C175.645,441.101,157.427,410.823,158.236,412.483z"/>
</g>
<path style="fill:#707487;" d="M36.004,194.207H18.349c-4.875,0-8.828-3.953-8.828-8.828v-26.483h35.31v26.483
	C44.831,190.254,40.879,194.207,36.004,194.207z"/>
<path style="fill:#FF6472;" d="M44.831,158.897H9.521L1.424,53.643c-0.394-5.128,3.659-9.505,8.802-9.505h33.9
	c5.142,0,9.196,4.377,8.801,9.505L44.831,158.897z"/>
<path style="fill:#5B5D6E;" d="M25.062,185.379v-26.483H9.521v26.483c0,4.875,3.953,8.828,8.828,8.828H33.89
	C29.013,194.207,25.062,190.254,25.062,185.379z"/>
<path style="fill:#DC5869;" d="M25.767,44.138H10.225c-5.142,0-9.196,4.377-8.802,9.504L9.52,158.897h15.541L16.965,53.642
	C16.571,48.515,20.625,44.138,25.767,44.138z"/>
<path style="fill:#707487;" d="M493.653,150.069h-17.655c-4.875,0-8.828-3.953-8.828-8.828v-26.483h35.31v26.483
	C502.481,146.116,498.528,150.069,493.653,150.069z"/>
<path style="fill:#FF6472;" d="M502.481,114.759h-35.31L459.075,9.505C458.68,4.377,462.734,0,467.876,0h33.9
	c5.142,0,9.196,4.377,8.801,9.505L502.481,114.759z"/>
<path style="fill:#5B5D6E;" d="M482.712,141.241v-26.483h-15.541v26.483c0,4.875,3.953,8.828,8.828,8.828h15.541
	C486.663,150.069,482.712,146.116,482.712,141.241z"/>
<path style="fill:#DC5869;" d="M483.417,0h-15.541c-5.142,0-9.196,4.377-8.802,9.504l8.096,105.255h15.541L474.616,9.504
	C474.221,4.377,478.275,0,483.417,0z"/>
<g>
</g>
<g>
</g>
<g>
</g>
<g>
</g>
<g>
</g>
<g>
</g>
<g>
</g>
<g>
</g>
<g>
</g>
<g>
</g>
<g>
</g>
<g>
</g>
<g>
</g>
<g>
</g>
<g>
</g>
</svg>
