<svg height="512pt" viewBox="-56 0 512 512" width="512pt" xmlns="http://www.w3.org/2000/svg"><g fill-rule="evenodd"><path d="m260 215v-95c0-60.496094-49.5-110-110-110s-110 49.5-110 110v95c0 19.25 15.75 35 35 35h10.003906l34.996094-10v-5.871094c-29.25-11.925781-50-40.722656-50-74.128906v-40h160v40c0 33.40625-20.75 62.199219-50 74.128906v5.871094l34.996094 10h10.003906c19.25 0 35-15.753906 35-35zm0 0" fill="#ff836c"/><path d="m70 88h160v32h-160zm0 0" fill="#e6e6e6"/><path d="m230 120h-160v40c0 33.40625 20.75 62.199219 50 74.128906 9.277344 3.785156 19.40625 5.871094 30 5.871094s20.726562-2.085938 30-5.871094c29.25-11.925781 50-40.722656 50-74.128906zm0 0" fill="#f4cdac"/><path d="m150 280c16.5 0 30-13.5 30-30v-15.871094c-9.273438 3.785156-19.40625 5.871094-30 5.871094s-20.722656-2.085938-30-5.871094v15.871094c0 16.5 13.5 30 30 30zm0 0" fill="#f4cdac"/><path d="m150 280c-16.5 0-30-13.5-30-30v-10l-70 20c-25.046875 7.15625-40 28-40 50v91.230469h60.003906l-8.800781-40h137.457031c3.183594-7.125 7.179688-13.804688 11.863282-19.929688 18.148437-23.726562 46.683593-39.089843 78.8125-39.296875-3.148438-18.898437-17.351563-35.722656-39.335938-42.003906l-70-20v10c0 16.5-13.5 30-30 30zm0 0" fill="#b3b3b3"/><path d="m10 401.230469h60.003906v60.769531h-60.003906zm0 0" fill="#f4cdac"/><path d="m70.003906 401.230469v60.769531h139.992188c-.785156-1.039062-1.546875-2.097656-2.289063-3.171875-5.492187-7.9375-9.867187-16.710937-12.894531-26.089844-2.992188-9.257812-4.570312-18.808593-4.792969-28.339843l.007813-.007813c-.019532-.792969-.027344-1.589844-.027344-2.390625 0-.253906 0-.511719.003906-.769531zm0 0" fill="#b3b3b3"/><path d="m70.003906 401.230469h120c.105469-14.238281 3.191406-27.769531 8.660156-40h-137.460937zm0 0" fill="#ffba4a"/><path d="m290 432h19.496094l6.023437-18.542969 6.023438-18.539062-15.773438-11.457031-15.769531-11.460938-15.773438 11.460938-15.769531 11.457031 6.023438 18.539062 6.023437 18.542969zm0 0" fill="#ae5e3c"/><path d="m270.503906 432-6.023437-18.539062-6.023438-18.542969-25.523437 18.542969 9.75 30 17.558594 54.039062c9.398437 2.925781 19.394531 4.5 29.757812 4.5 1.082031 0 2.160156-.015625 3.230469-.050781l-12.980469-39.949219zm0 0" fill="#d38967"/><path d="m290 432h-19.496094l9.75 30h89.753906c6.722657-8.953125 11.980469-19.070312 15.414063-30zm0 0" fill="#d38967"/><path d="m315.519531 413.460938-6.023437 18.539062h31.542968l9.75-30 17.984376-55.359375c-6.433594-9.164063-14.433594-17.292969-23.765626-23.933594l-13.714843 42.210938-9.75 30zm0 0" fill="#d38967"/><path d="m305.769531 383.460938 15.773438 11.457031 9.75-30-25.523438-18.542969-47.089843-34.214844c-10.707032 3.292969-20.90625 8.386719-30.105469 15.210938l35.90625 26.085937 25.519531 18.542969zm0 0" fill="#d38967"/><path d="m274.226562 383.460938 15.773438-11.460938-25.519531-18.542969-25.519531 18.542969-47.09375 34.214844c-.175782 11.195312 1.515624 22.472656 5.164062 33.332031l35.90625-26.085937 25.519531-18.542969zm0 0" fill="#d38967"/><path d="m311.796875 462h-31.542969l12.980469 39.949219c31.390625-.996094 59.132813-16.460938 76.773437-39.949219zm0 0" fill="#ae5e3c"/><path d="m350.789062 402-9.75 30h42.003907c8.753906-30.164062 2.617187-61.328125-14.269531-85.363281zm0 0" fill="#ae5e3c"/><path d="m305.769531 346.375 25.523438 18.542969 12.976562-39.949219c-25.980469-17.644531-57.515625-21.441406-85.589843-12.808594zm0 0" fill="#ae5e3c"/><path d="m238.960938 372 25.519531-18.542969-33.984375-24.6875c-24.808594 19.257813-38.164063 48.074219-38.628906 77.445313zm0 0" fill="#ae5e3c"/><path d="m242.683594 443.460938-9.75-30-33.980469 24.6875c10.648437 29.546874 33.929687 51.152343 61.71875 60.671874zm0 0" fill="#ae5e3c"/></g><path d="m377.363281 468.757812c.441407-.480468.832031-1 1.171875-1.554687 7.019532-9.503906 12.542969-20.175781 16.226563-31.660156.117187-.304688.21875-.617188.304687-.933594 3.203125-10.308594 4.933594-21.261719 4.933594-32.609375 0-58.214844-45.460938-106.007812-102.746094-109.753906-6.265625-19.957032-22.691406-35.628906-44.503906-41.859375 10.492188-8.246094 17.25-21.039063 17.25-35.386719v-95c0-66.167969-53.832031-120-120-120-5.523438 0-10 4.476562-10 10s4.476562 10 10 10c55.140625 0 100 44.859375 100 100v95c0 13.785156-11.214844 25-25 25h-8.605469l-16.945312-4.839844c24.410156-16.117187 40.550781-43.785156 40.550781-75.160156v-40s0-.003906 0-.007812v-31.992188c0-5.523438-4.476562-10-10-10h-160c-5.519531 0-10 4.476562-10 10v31.988281.011719 40c0 31.371094 16.140625 59.042969 40.550781 75.15625l-16.945312 4.84375h-8.605469c-13.785156 0-25-11.214844-25-25v-95c0-31.402344 15.191406-61.429688 40.636719-80.320312 4.433593-3.292969 5.359375-9.558594 2.066406-13.992188s-9.554687-5.359375-13.992187-2.066406c-30.5 22.644531-48.710938 58.675781-48.710938 96.378906v95c0 14.347656 6.761719 27.140625 17.25 35.386719-28.261719 8.074219-47.25 32.03125-47.25 59.613281v152c0 5.523438 4.476562 10 10 10h195.207031c12.613281 15.25 29.25 27.046875 48.269531 33.757812 1.867188 1.9375 4.46875 3.066407 7.191407 3.066407.703125 0 1.410156-.082031 2.117187-.234375 8.707032 2.222656 17.824219 3.410156 27.214844 3.410156 1.070312 0 2.132812-.019531 3.195312-.050781h.035157c.265625 0 .53125-.011719.796875-.03125 33.925781-1.226563 63.980468-17.890625 83.335937-43.160157zm-48.21875 14.273438-3.582031-11.03125h20.9375c-5.324219 4.304688-11.136719 8.015625-17.355469 11.03125zm-28.824219 8.375-6.304687-19.40625h10.515625l5.75 17.695312c-3.253906.753907-6.582031 1.320313-9.960938 1.710938zm-32.226562-2.105469-15.914062-48.976562c-.011719-.035157-.023438-.074219-.039063-.113281l-7.449219-22.929688 8.507813-6.183594 7.792969 23.992188 9.703124 29.863281c.007813.019531.015626.039063.019532.058594l8.5625 26.347656c-3.804688-.453125-7.539063-1.144531-11.183594-2.058594zm21.203125-177.292969c.007813 0 .019531.003907.027344.003907.019531 0 .039062-.003907.058593-.003907.207032 0 .410157-.007812.617188-.007812 5.449219 0 10.78125.488281 15.964844 1.417969l-5.449219 16.777343-23.710937-17.226562c4.082031-.601562 8.253906-.925781 12.492187-.960938zm44.898437 11.617188-8.160156 25.113281-8.507812-6.183593 7.605468-23.410157c3.117188 1.324219 6.136719 2.824219 9.0625 4.480469zm24.824219 20.683594-17.765625 54.675781c-.007812.023437-.015625.042969-.023437.066406l-7.457031 22.949219h-10.515626l7.792969-23.980469c0-.003906.003907-.007812.003907-.011719l9.703124-29.859374c.007813-.019532.011719-.042969.023438-.066407l10.402344-32.023437c2.78125 2.582031 5.398437 5.335937 7.835937 8.25zm20.421875 47.691406h-14.890625l8.226563-25.316406c3.390625 7.921875 5.675781 16.425781 6.664062 25.316406zm-14.644531 60h-53.039063c-.042968 0-.089843 0-.132812 0h-24.109375l-3.246094-10h56.695313c.027344 0 .050781.003906.078125.003906.023437 0 .046875-.003906.074219-.003906h29.488281c-1.726563 3.464844-3.667969 6.804688-5.808594 10zm-137.617187-46.71875c-.019532.015625-.042969.03125-.0625.046875l-24.589844 17.863281c-.867188-3.570312-1.515625-7.226562-1.941406-10.949218l63.894531-46.421876 8.507812 6.179688-20.410156 14.828125zm-18.105469-42.632812 12.871093 9.351562-20.695312 15.035156c1.449219-8.601562 4.113281-16.792968 7.824219-24.386718zm93.15625 59.351562h-24.460938l-7.558593-23.261719 19.789062-14.378906 19.789062 14.378906zm52.574219 0 3.25-10h21.386718c-.378906 3.390625-.941406 6.730469-1.683594 10zm-102.160157-101.875c.054688.042969.101563.085938.15625.125l47.136719 34.25c.03125.019531.058594.042969.085938.0625l19.511718 14.175781-3.25 10-20.40625-14.828125-25.398437-18.453125c-.019531-.015625-.039063-.027343-.0625-.042969l-27.578125-20.035156c3.148437-1.945312 6.417968-3.703125 9.804687-5.253906zm-26.109375 18.125 20.929688 15.207031-8.507813 6.183594-19.140625-13.910156c2.101563-2.617188 4.34375-5.113281 6.71875-7.480469zm-16.800781 104.429688 17.945313-13.039063 3.25 10-16.140626 11.726563c-1.839843-2.792969-3.53125-5.691407-5.054687-8.6875zm27.691406 16.960937 6.355469 19.554687c-5.863281-3.519531-11.289062-7.691406-16.1875-12.410156zm-107.425781-211.882813c6.4375 1.464844 13.128906 2.242188 20 2.242188s13.566406-.777344 20-2.242188v2.242188c0 11.027344-8.972656 20-20 20s-20-8.972656-20-20zm90-149.757812v12h-140v-12zm-140 62v-30h140v30c0 29.097656-17.851562 54.097656-43.171875 64.648438-.328125.109374-.648437.234374-.960937.378906-8.007813 3.195312-16.730469 4.972656-25.867188 4.972656s-17.859375-1.777344-25.867188-4.972656c-.3125-.144532-.628906-.269532-.953124-.378906-25.324219-10.546876-43.179688-35.546876-43.179688-64.648438zm-27.253906 109.617188 57.394531-16.402344c1.644531 20.558594 18.886719 36.785156 39.859375 36.785156s38.214844-16.226562 39.859375-36.785156l57.394531 16.398437c13.152344 3.757813 23.449219 12.28125 28.773438 23.269531-36.382813 4.632813-67.261719 27.109376-83.585938 58.34375h-118.039062c.78125-1.441406 1.667968-2.691406 2.671875-3.695312 3.90625-3.902344 3.90625-10.234375 0-14.140625s-10.238281-3.90625-14.140625 0c-11.726563 11.722656-12.609375 30.019531-12.089844 39.882813.289062 5.558593 1.234375 11.933593 3 17.957031h-33.84375v-81.230469c0-18.558594 13.160156-34.789062 32.746094-40.382812zm-32.746094 141.613281h40.003906v40.769531h-40.003906zm60.003906 40.769531v-40.769531h10.007813c5.523437 0 10-4.476563 10-10 0-5.523438-4.476563-10-10-10h-14.832031c-1.90625-3.859375-3.929688-10.660157-4.367188-19-.015625-.339844-.023438-.667969-.035156-1h113.609375c-1.882813 6.445312-3.1875 13.128906-3.859375 20h-21.550782c-5.523437 0-10 4.476562-10 10 0 5.523437 4.476563 10 10 10h21.414063c.867187 10.378906 3.183594 20.355469 6.742187 29.722656.222657 1.566406.8125 3.101563 1.808594 4.472656 0 0 .003906.003907.003906.003907.960938 2.226562 1.988282 4.421874 3.089844 6.570312zm0 0"/><path d="m130.117188 150c0-5.523438-4.476563-10-10-10h-.234376c-5.523437 0-10 4.476562-10 10s4.476563 10 10 10h.234376c5.523437 0 10-4.476562 10-10zm0 0"/><path d="m179.882812 160h.238282c5.523437 0 10-4.476562 10-10s-4.476563-10-10-10h-.238282c-5.523437 0-10 4.476562-10 10s4.476563 10 10 10zm0 0"/><path d="m150 210c10.226562 0 19.839844-3.980469 27.070312-11.214844 3.90625-3.90625 3.90625-10.238281 0-14.140625-3.902343-3.90625-10.234374-3.90625-14.140624 0-3.453126 3.453125-8.046876 5.355469-12.929688 5.355469s-9.472656-1.902344-12.925781-5.355469c-3.90625-3.90625-10.238281-3.90625-14.144531 0-3.902344 3.902344-3.90625 10.234375 0 14.140625 7.230468 7.230469 16.84375 11.214844 27.070312 11.214844zm0 0"/><path d="m108.957031 28c1.246094 0 2.515625-.234375 3.742188-.730469l.238281-.097656c5.125-2.066406 7.597656-7.894531 5.53125-13.015625s-7.894531-7.597656-13.015625-5.527344l-.242187.09375c-5.121094 2.066406-7.597657 7.894532-5.527344 13.015625 1.570312 3.898438 5.316406 6.261719 9.273437 6.261719zm0 0"/><path d="m130.246094 391.230469h-.269532c-5.523437 0-10 4.476562-10 10 0 5.523437 4.476563 10 10 10h.269532c5.523437 0 10-4.476563 10-10 0-5.523438-4.476563-10-10-10zm0 0"/></svg>