<svg height="512" viewBox="0 0 60 60" width="512" xmlns="http://www.w3.org/2000/svg"><g id="023---Shooting" fill="none"><g id="Icons" transform="translate(1 4)"><path id="Rectangle-path" d="m26 20h6v4h-6z" fill="#37474f"/><path id="Shape" d="m53.91 24v4c-1.0790961 13.5848646-12.8486949 23.7970496-26.45 22.95-.011388.0101858-.028612.0101858-.04 0-7.602633-.4726948-14.5718457-4.3956396-18.92-10.65l4.04-1.29c5.3085967 6.7332462 14.180342 9.5583505 22.4048857 7.1345757s14.1463755-9.6085494 14.9551143-18.1445757v-4c-.7338964-7.7428946-5.6871306-14.44608997-12.873191-17.42124668s-15.4279866-1.73499226-21.4203261 3.22312117c-5.99233948 4.95811341-8.75364397 12.82211711-7.1764829 20.43812551v.01c-.8-.324-1.272-.25-4.11-.25-1.50455411-9.0700779 2.09072173-18.2340713 9.3614461-23.86137642 7.2707244-5.62730514 17.0434749-6.80973109 25.4464695-3.07882268s14.0800738 11.7730197 14.7820844 20.9401991z" fill="#f44335"/><path id="Shape" d="m53.91 24v4c-1.0791151 13.5765973-12.8362473 23.7856848-26.43 22.95 12.4429465-.7308944 22.4417385-10.5248455 23.43-22.95v-4c-.9882615-12.4251545-10.9870535-22.21910564-23.43-22.95 13.5939385-.83623284 25.3514015 9.3731419 26.43 22.95z" fill="#c81e1e"/><path id="Shape" d="m5 30v11.41l-2.39.76c-.60917825.1950977-1.27492553.0870417-1.79112523-.2907137-.51619971-.3777553-.82056908-.9796314-.81887477-1.6192863v-8.26c.0032948-1.1032019.89679813-1.9967052 2-2z" fill="#624421"/><path id="Shape" d="m25.5 20h-4c-1.3807119 0-2.5-1.1192881-2.5-2.5s1.1192881-2.5 2.5-2.5h4c-1.3807119 0-2.5 1.1192881-2.5 2.5s1.1192881 2.5 2.5 2.5z" fill="#37474f"/><path id="Shape" d="m36.5 20h-11c-1.3807119 0-2.5-1.1192881-2.5-2.5s1.1192881-2.5 2.5-2.5h11c-1.3807119 0-2.5 1.1192881-2.5 2.5s1.1192881 2.5 2.5 2.5z" fill="#7f8e94"/><circle id="Oval" cx="36.5" cy="17.5" fill="#37474f" r="2.5"/><path id="Shape" d="m56 28h-17c-1.1045695 0-2-.8954305-2-2s.8954305-2 2-2h17c-1.1045695 0-2 .8954305-2 2s.8954305 2 2 2z" fill="#7f8e94"/><circle id="Oval" cx="56" cy="26" fill="#37474f" r="2"/><path id="Shape" d="m39 23.9999988v5.0000012c-.0032948 1.1032019-.8967981 1.9967052-2 2h-15v2.08c-.0011314 1.7420422-1.1295731 3.2830325-2.79 3.81l-14.21 4.52v-11.41c2.938 0 2.784-.108 4.42.71 1.541293.7679029 3.4007755.4660388 4.62-.75l4.79-4.79c.7507884-.7499543 1.7688148-1.1708345 2.83-1.17z" fill="#91562d"/></g><path id="Shape" d="m57 27h-1.188c-1.5237346-12.7036674-12.0288702-22.43146022-24.812-22.976v-3.024c0-.55228475-.4477153-1-1-1s-1 .44771525-1 1v3.025c-13.5642066.53802427-24.43697573 11.4107934-24.975 24.975h-3.025c-.55228475 0-1 .4477153-1 1s.44771525 1 1 1h3.04c.026.67.077 1.3366667.153 2h-1.193c-1.65685425 0-3 1.3431458-3 3v8.265c-.00011055.9572194.45657592 1.8570271 1.22926702 2.4220204.7726911.5649934 1.76861345.7273362 2.68073298.4369796l5.211-1.658c4.690485 6.3347122 12.00269 10.1980902 19.879 10.503v3.031c0 .5522847.4477153 1 1 1s1-.4477153 1-1v-3.024c12.7831298-.5445398 23.2882654-10.2723326 24.812-22.976h1.188c1.6568542 0 3-1.3431458 3-3s-1.3431458-3-3-3zm-16 4v-2h13.184c-.2449966.6441579-.2449966 1.3558421 0 2zm-11 15c-.5522847 0-1 .4477153-1 1v2.972c-5.2498848-.2504464-10.1851977-2.5763745-13.72-6.466l4.733-1.506h6.987c2.209139 0 4-1.790861 4-4v-2h7c1.6568542 0 3-1.3431458 3-3h8.749c-1.3838198 9.4115394-9.246099 16.5206769-18.749 16.953v-2.953c0-.5522847-.4477153-1-1-1zm-23-1.959v-9.041c1.03121851-.1635692 2.08686296.0494054 2.974.6 1.9251286.9625644 4.2502235.5851192 5.772-.937l4.79-4.79c.5646854-.5586006 1.3267055-.8722468 2.121-.873h16.343v4c0 .5522847-.4477153 1-1 1h-17c-.5522847 0-1 .4477153-1 1s.4477153 1 1 1h1v1.075c.0033512 1.3074532-.843177 2.4654552-2.09 2.859zm6-15.041h-2.949c.5212602-10.2415652 8.7074348-18.4277398 18.949-18.949v2.949c0 .5522847.4477153 1 1 1s1-.4477153 1-1v-2.953c9.502901.4323231 17.3651802 7.5414606 18.749 16.953h-15.749v-2h3.5c1.9329966 0 3.5-1.5670034 3.5-3.5s-1.5670034-3.5-3.5-3.5h-15c-1.9329966 0-3.5 1.5670034-3.5 3.5s1.5670034 3.5 3.5 3.5h3.5v2h-3.343c-1.3265763-.0037456-2.5995062.523431-3.535 1.464l-4.79 4.79c-.9132515.913572-2.3087589 1.1399794-3.464.562l-.533-.267c-.1484596-.8428082-.2433167-1.6941837-.284-2.549h2.949c.5522847 0 1-.4477153 1-1s-.4477153-1-1-1zm23-7.5c0-.8284271.6715729-1.5 1.5-1.5s1.5.6715729 1.5 1.5-.6715729 1.5-1.5 1.5-1.5-.6715729-1.5-1.5zm-1.649-1.5c-.4680971.9452213-.4680971 2.0547787 0 3h-7.851c-.8284271 0-1.5-.6715729-1.5-1.5s.6715729-1.5 1.5-1.5zm-11 3h-.851c-.8284271 0-1.5-.6715729-1.5-1.5s.6715729-1.5 1.5-1.5h.848c-.4651517.9461544-.464043 2.0547778.003 3zm4.649 2h4v2h-4zm-2.555 13.832c.2206502.1472282.4907558.2007572.7508787.1488077.2601229-.0519496.488948-.2051208.6361213-.4258077l1.703-2.555h.465v2c0 1.1045695-.8954305 2-2 2h-3.943c.7835494-1.1772336 1.1181984-2.5967416.943-4h2.132l-.964 1.445c-.1472282.2206502-.2007572.4907558-.1488077.7508787.0519496.2601229.2051208.488948.4258077.6361213zm28.355-11.832h-2.033c-1.4002575-10.5230053-10.160167-18.51773558-20.767-18.953v-2.023c11.6818001.5361635 21.2938988 9.3792942 22.8 20.976zm-24.8-20.975v2c-11.3573315.53015345-20.44484655 9.6176685-20.975 20.975h-2c.53461366-12.4605828 10.5144172-22.44038634 22.975-22.975zm-20.95 24.975c.1 2.287.341 2 .006 2h-1.85c-.08333333-.6626667-.13866667-1.3293333-.166-2zm-4.75 14.218c-.30361155.0954816-.63454257.0407359-.89122962-.1474355-.25668705-.1881713-.4084715-.4872932-.40877038-.8055645v-8.265c0-.5522847.44771525-1 1-1h2v9.678zm7.833-.393 2.068-.658c3.9340924 4.7080719 9.6692759 7.5413593 15.799 7.805v2c-7.0052153-.2920471-13.5320804-3.6340329-17.864-9.147zm19.867 9.151v-2.023c10.606833-.4352644 19.3667425-8.4299947 20.767-18.953h2.033c-1.5061012 11.5967058-11.1181999 20.4398365-22.8 20.976zm26-22.976c-.5522847 0-1-.4477153-1-1s.4477153-1 1-1 1 .4477153 1 1-.4477153 1-1 1z" fill="#000"/></g></svg>