<svg height="512pt" viewBox="0 -2 512 512" width="512pt" xmlns="http://www.w3.org/2000/svg"><g fill-rule="evenodd"><path d="m374.839844 123.269531v-10.242187c0-5.6875-4.660156-10.351563-10.351563-10.351563h-15.4375l-15.925781 27.007813c0 4.117187 14.496094 19.839844 14.496094 19.839844 12.894531.058593 27.21875-13.214844 27.21875-26.253907zm0 0" fill="#eda93b"/><path d="m167.898438 102.675781h-15.441407c-5.6875 0-10.347656 4.664063-10.347656 10.351563v10.242187c0 13.039063 14.324219 26.3125 27.21875 26.253907-.945313-4.320313 17.898437-15.507813 23.6875-26.171876zm0 0" fill="#eda93b"/><path d="m7.558594 380.152344v39.382812c.3125 5.234375 4.601562 9.4375 9.804687 9.4375h17.097657l16.953124-28.972656-16.953124-29.285156h-17.097657c-5.203125 0-9.492187 4.203125-9.804687 9.4375zm0 0" fill="#e6e6e6"/><path d="m7.558594 400v18.933594c0 5.519531 4.402344 10.039062 9.804687 10.039062h17.097657v-28.972656zm0 0" fill="#a5acb3"/><path d="m504.414062 382.152344v39.355468c-.3125 5.261719-4.601562 9.4375-9.804687 9.4375h-17.097656l-16.957031-28.941406 16.957031-29.289062h17.097656c5.203125 0 9.492187 4.207031 9.804687 9.4375zm0 0" fill="#e6e6e6"/><path d="m504.441406 402.003906v18.902344c0 5.519531-4.429687 10.039062-9.832031 10.039062h-17.097656v-28.941406zm0 0" fill="#a5acb3"/><path d="m92.503906 417.503906-13.296875 13.527344 13.296875 15.617188c6.003906 3.34375 12.921875 5.234374 20.296875 5.234374 16.097657 0 30.105469-9.066406 37.113281-22.394531.769532-11.527343-12.667968-11.984375-21.785156-11.984375l-20.5-14.355468zm0 0" fill="#fcc368"/><path d="m154.773438 230.515625c-45.6875 8.496094-50.976563 37.839844-62.273438 83.570313l-15.953125 40.097656 15.953125 28.628906 28.964844 16.445312 33.023437-15.816406 32.734375-78.792968zm0 0" fill="#ffdda6"/><path d="m361.746094 428.914062c6.945312 13.640626 21.097656 22.964844 37.425781 22.964844 7.375 0 14.296875-1.886718 20.300781-5.234375l11.175782-18.675781-11.175782-10.464844-17.644531-13.558594-18.4375 13.558594c-4.089844 5.546875-12.210937 9.410156-21.644531 11.410156zm0 0" fill="#fcc368"/><path d="m201.289062 396.226562c-6.574218 11.550782-28.132812 15.527344-46.515624 12.839844v36.0625c0 16.589844 6.632812 25.710938 23.359374 31.859375 33.308594 12.1875 116.195313 12.527344 155.707032 0 16.980468-5.402343 23.386718-15.269531 23.386718-31.859375v-36.691406c-18.070312 2.628906-39.167968-1.144531-46.175781-12.214844h-109.761719zm0 0" fill="#64b0d9"/><path d="m92.503906 382.8125-15.957031 16.84375 15.957031 17.847656h35.621094l14.125-17.503906-16.496094-17.1875zm0 0" fill="#e6e6e6"/><path d="m357.226562 230.515625-24.101562 78.9375 25.160156 72.613281 27.960938 15.273438 33.222656-14.53125 12.238281-28.625-12.238281-40.097656c-11.292969-45.730469-16.582031-75.074219-62.242188-83.570313zm0 0" fill="#ffdda6"/><path d="m178.359375 228.171875c-2.769531 19.25 9.894531 60.574219 80.171875 57.140625 70.277344-3.460938 79.96875-36.378906 79.96875-56.96875-.828125-.03125-1.6875-.085938-2.574219-.113281-14.410156-.058594-26.847656-5.519531-33.363281-15.160157l-43.460938-26.253906-48.175781 23.765625c-5.660156 10.613281-17.953125 16.933594-32.566406 17.589844zm0 0" fill="#fcc368"/><path d="m154.773438 230.515625v142.601563c0 59.230468 201.855468 56.710937 202.453124-.628907v-141.972656c-5.605468-1.027344-11.808593-1.742187-18.726562-2.171875-6.804688 19.789062-39.914062 34.605469-79.96875 34.605469s-73.367188-15.015625-80.171875-34.777344c-.914063.03125-3.371094.085937-3.800781.113281-7.347656.402344-13.894532 1.144532-19.785156 2.230469zm0 0" fill="#64b0d9"/><path d="m169.324219 149.523438c4.691406 21.878906 20.617187 45.300781 41.601562 61.0625 7.71875 5.832031 16.152344 10.609374 24.960938 13.871093 16.46875 6.117188 28.820312 6.089844 45.257812-.03125 7.492188-2.800781 14.699219-6.664062 21.417969-11.355469 22.671875-15.699218 40.113281-40.496093 45.058594-63.546874.914062-4.320313 1.429687-8.609376 1.429687-12.726563v-49.25l-90.578125-32.804687-90.574218 32.804687v49.25c0 4.117187.484374 8.40625 1.425781 12.726563zm0 0" fill="#ffdda6"/><path d="m215.585938 16.535156c-27.1875 11.953125-47.6875 35.777344-47.6875 71.011719 79.082031-21.335937 72.675781 41.242187 181.152343 0 0-72.042969-79.796875-94.609375-133.464843-71.011719zm0 0" fill="#808080"/><path d="m386.246094 382.8125-14.953125 16.644531 12.09375 18.046875h36.082031l19.15625-17.046875-19.15625-17.644531zm0 0" fill="#e6e6e6"/><path d="m419.46875 382.8125v103.445312c0 7.808594 6.40625 14.183594 14.210938 14.183594h29.648437c7.804687 0 14.183594-6.378906 14.183594-14.183594v-172.171874c0-7.808594-6.378907-14.210938-14.183594-14.210938h-29.648437c-7.804688 0-14.210938 6.402344-14.210938 14.210938zm0 0" fill="#808080"/><path d="m308.679688 382.8125h-105.414063l-19.128906 17.1875 17.152343 17.503906h109.765626l12.863281-17.503906zm0 0" fill="#e6e6e6"/><path d="m308.679688 382.8125c-.113282 3.714844-.488282 10.351562-.402344 16.988281.085937 7.234375.714844 14.441407 2.773437 17.703125 7.007813 11.09375 28.105469 14.839844 46.175781 12.210938 1.515626-.199219 3.058594-.488282 4.515626-.800782 9.4375-2.003906 17.558593-5.863281 21.644531-11.410156 1.832031-2.460937 2.859375-5.234375 2.859375-8.351562v-34.691406c0-3.460938-.484375-17.476563-29.019532-12.640626l-32.394531 5.488282c-14.4375 2.460937-16.011719 10.925781-16.152343 15.503906zm0 0" fill="#fcc368"/><path d="m125.753906 382.8125v26.96875c0 2.859375.855469 5.433594 2.371094 7.722656 3.890625 5.832032 12.152344 9.894532 21.785156 11.980469 1.601563.34375 3.203125.628906 4.863282.859375 18.382812 2.6875 39.941406-1.257812 46.515624-12.839844 1.316407-2.257812 2.03125-4.832031 2.03125-7.722656v-24.394531c0-.628907 0-1.515625-.054687-2.574219-.289063-4.691406-2.316406-12.527344-16.125-14.875l-32.367187-5.488281c-28.535157-4.835938-29.019532 9.179687-29.019532 12.640625zm0 0" fill="#fcc368"/><path d="m34.460938 314.085938v172.171874c0 7.804688 6.40625 14.183594 14.210937 14.183594h29.648437c7.777344 0 14.179688-6.378906 14.179688-14.183594v-172.171874c0-7.808594-6.402344-14.214844-14.179688-14.214844h-29.648437c-7.804687 0-14.210937 6.40625-14.210937 14.214844zm0 0" fill="#808080"/><path d="m246.351562 8.328125c37.167969 4.34375 71.019532 27.226563 75.566407 69.410156.34375 3.144531.515625 6.433594.515625 9.808594v8.753906c8.03125-2.175781 16.867187-5.0625 26.617187-8.753906 0-59.144531-53.78125-84.941406-102.699219-79.21875zm0 0" fill="#666"/><path d="m322.433594 108.054688v28.742187c0 4.117187-.488282 8.40625-1.429688 12.726563-4.0625 18.988281-16.613281 39.125-33.539062 54.425781-3.660156 3.289062-7.492188 6.347656-11.492188 9.121093-6.75 4.691407-13.953125 8.550782-21.417968 11.355469-3.257813 1.199219-6.375 2.203125-9.375 2.917969 12.179687 2.972656 22.757812 2 35.964843-2.917969 7.492188-2.804687 14.699219-6.664062 21.417969-11.355469 22.671875-15.699218 40.113281-40.496093 45.058594-63.546874.914062-4.320313 1.429687-8.609376 1.429687-12.726563v-49.25c-9.75 3.6875-18.582031 6.578125-26.617187 8.753906zm0 0" fill="#fcc368"/><path d="m274.257812 226.683594c6.429688 6.464844 28.304688 22.195312 45 22.195312 9.75-5.664062 16.554688-12.699218 19.242188-20.535156l-2.570312-.113281c-14.410157-.058594-26.847657-5.519531-33.367188-15.160157-6.71875 4.691407-13.925781 8.550782-21.414062 11.355469-2.375.886719-4.664063 1.628907-6.890626 2.257813zm0 0" fill="#eda93b"/><path d="m338.5 228.34375c-2.6875 7.835938-9.492188 14.871094-19.242188 20.535156.828126 0 1.773438.113282 2.628907.144532 4.316406.253906 8.351562.628906 12.152343 1.144531 2.257813.285156 4.460938.628906 6.546876 1.027343 3.089843.574219 6.003906 1.257813 8.75 2.003907 2.800781.800781 5.429687 1.6875 7.890624 2.660156v-25.339844c-5.605468-1.03125-11.808593-1.746093-18.726562-2.175781zm0 0" fill="#4a83c9"/><path d="m357.226562 230.515625v25.339844c46.488282 18.503906 45.632813 84.742187 45.632813 126.957031h16.609375v-68.726562c-11.292969-45.730469-16.582031-75.074219-62.242188-83.570313zm0 0" fill="#fcc368"/><path d="m125.753906 409.78125c0 2.859375.855469 5.433594 2.371094 7.722656 3.890625 5.832032 12.152344 9.894532 21.785156 11.980469 1.601563.34375 3.203125.628906 4.863282.859375 18.382812 2.6875 39.941406-1.257812 46.515624-12.839844 1.089844-1.890625 1.773438-4.003906 1.976563-6.351562.027344-.425782.054687-.886719.054687-1.371094v-17.332031c0 2.859375-.714843 5.433593-2.03125 7.722656-1.855468 3.289063-4.945312 5.949219-8.832031 8.039063-.058593.027343-.113281.054687-.171875.113281-9.777344 5.148437-24.445312 6.578125-37.511718 4.6875-1.660157-.226563-3.261719-.542969-4.863282-.886719-5.03125-1.085938-9.691406-2.714844-13.550781-4.832031-3.515625-1.972657-6.375-4.347657-8.234375-7.121094-1.515625-2.316406-2.371094-4.890625-2.371094-7.722656zm0 0" fill="#cf973c"/><path d="m311.054688 417.503906c7.003906 11.097656 28.101562 14.84375 46.171874 12.210938 1.515626-.199219 3.058594-.484375 4.519532-.800782 9.433594-2 17.554687-5.863281 21.644531-11.410156 1.828125-2.460937 2.855469-5.234375 2.855469-8.351562v-17.332032c0 .886719-.085938 1.714844-.253906 2.542969-.402344 2.117188-1.289063 4.035157-2.601563 5.808594-1.773437 2.402344-4.320313 4.519531-7.40625 6.261719-4.003906 2.289062-8.890625 4.003906-14.238281 5.148437-1.457032.316407-3.003906.570313-4.515625.800781-13.382813 1.945313-28.421875.371094-38.171875-5.0625-.113282-.054687-.253906-.113281-.371094-.199218-3.230469-1.859375-5.859375-4.175782-7.632812-6.949219-1.257813-2.03125-2-5.578125-2.375-9.726563-.085938-.769531-.140626-1.601562-.199219-2.429687-.113281 3.433594-.257813 7.609375-.199219 11.785156.027344 2.746094.144531 5.460938.398438 8.007813.058593.828125.171874 1.65625.257812 2.429687.429688 3.03125 1.085938 5.578125 2.085938 7.207031.03125.027344.03125.058594.03125.058594zm0 0" fill="#cf973c"/><path d="m34.460938 461.230469v25.027343c0 7.808594 6.40625 14.183594 14.210937 14.183594h29.648437c7.777344 0 14.179688-6.378906 14.179688-14.183594v-25.027343c0 7.808593-6.402344 14.1875-14.179688 14.1875h-29.648437c-7.804687 0-14.210937-6.378907-14.210937-14.1875zm0 0" fill="#666"/><path d="m419.46875 461.230469v25.027343c0 7.808594 6.40625 14.183594 14.210938 14.183594h29.648437c7.804687 0 14.183594-6.378906 14.183594-14.183594v-25.027343c0 7.808593-6.378907 14.1875-14.183594 14.1875h-29.648437c-7.804688 0-14.210938-6.378907-14.210938-14.1875zm0 0" fill="#666"/><path d="m92.503906 400.171875v17.332031h35.625c-1.515625-2.289062-2.375-4.863281-2.375-7.722656v-9.609375zm0 0" fill="#a5acb3"/><path d="m203.320312 400.171875v9.609375c0 .488281-.027343.945312-.054687 1.375-.203125 2.34375-.886719 4.460938-1.976563 6.347656h109.761719s0-.027344-.027343-.058594c-1-1.628906-1.660157-4.175781-2.085938-7.207031-.085938-.769531-.203125-1.601562-.257812-2.429687-.230469-2.402344-.34375-5.035156-.402344-7.636719zm0 0" fill="#a5acb3"/><path d="m386.246094 400.171875v8.980469c0 3.117187-1.027344 5.890625-2.859375 8.351562h36.082031v-17.332031zm0 0" fill="#a5acb3"/></g><path d="m494.605469 365.15625h-9.539063v-51.070312c0-12.003907-9.753906-21.769532-21.738281-21.769532h-29.648437c-4.035157 0-7.816407 1.105469-11.058594 3.027344-5.078125-20.019531-10.175782-36.28125-20.523438-48.917969-9.886718-12.078125-23.585937-19.5625-43.074218-23.242187-.234376-.054688-.472657-.101563-.714844-.136719-5.75-1.050781-12-1.773437-18.796875-2.191406-.367188-.046875-.734375-.0625-1.097657-.058594-.710937-.042969-1.417968-.082031-2.140624-.117187-.105469-.003907-.210938-.007813-.316407-.007813-8.824219-.035156-16.632812-2.4375-22.136719-6.628906 19.011719-15.339844 33.851563-36.574219 39.863282-57.644531 6.429687-1.414063 12.890625-4.976563 18.132812-10.148438 6.722656-6.636719 10.578125-15.011719 10.578125-22.980469v-10.238281c0-9.878906-8.03125-17.910156-17.90625-17.910156h-7.882812v-7.574219c0-29.980469-13.25-55.136719-37.308594-70.84375-29.582031-19.308594-72.480469-22.15625-106.75-7.089844-33.179687 14.589844-52.207031 42.992188-52.207031 77.933594v7.574219h-7.882813c-9.875 0-17.90625 8.03125-17.90625 17.910156v10.238281c0 7.96875 3.855469 16.347657 10.582031 22.988281 5.242188 5.171876 11.703126 8.734376 18.125 10.144532 5.734376 20.128906 19.523438 40.398437 37.308594 55.535156-5.039062 5.039062-12.90625 8.171875-22.183594 8.660156-.050781.003906-.101562 0-.152343 0-.265625.015625-1.058594.039063-1.855469.066406-.992188.03125-1.988281.0625-2.21875.078126-6.988281.371093-13.402344 1.0625-19.300781 2.078124-.027344 0-.054688-.003906-.082031-.003906-.984376 0-1.925782.195313-2.789063.539063-19.15625 3.777343-32.636719 11.324219-42.398437 23.433593-10.148438 12.59375-15.195313 28.714844-20.230469 48.550782-3.238281-1.917969-7.007813-3.023438-11.035157-3.023438h-29.648437c-12.003906 0-21.769531 9.765625-21.769531 21.769532v49.070312h-9.539063c-9.574219 0-17.363281 7.894531-17.363281 17.597656v38.179688c0 9.703125 7.789062 17.59375 17.363281 17.59375h9.539063v49.730468c0 11.988282 9.765625 21.742188 21.769531 21.742188h29.648437c11.988282 0 21.738282-9.753906 21.738282-21.742188v-28.488281c4.132812 1.09375 8.417968 1.667969 12.742187 1.667969 13.082031 0 25.332031-5.105469 34.421875-13.890625.121094 19.492187 8.863282 31.390625 28.3125 38.542969 17.863282 6.535156 47.902344 9.804687 78.582032 9.804687 30.488281 0 61.609374-3.230469 82.015624-9.703125 19.402344-6.175781 28.511719-18.457031 28.644532-38.621094 9.074218 8.78125 21.289062 13.867188 34.394531 13.867188 4.320313 0 8.605469-.570312 12.742187-1.667969v28.488281c0 11.988282 9.761719 21.742188 21.765626 21.742188h29.648437c11.984375 0 21.738281-9.753906 21.738281-21.742188v-47.753906h9.539063c9.59375 0 17.394531-7.894531 17.394531-17.597656v-38.148438c0-9.707031-7.800781-17.601562-17.394531-17.601562zm-138-228.359375v-26.5625h7.882812c1.515625 0 2.792969 1.28125 2.792969 2.792969v10.242187c0 3.894531-2.273438 8.460938-6.082031 12.21875-1.441407 1.421875-3.023438 2.648438-4.660157 3.640625.03125-.777344.066407-1.558594.066407-2.332031zm-200.855469-1.300781c-3.808594-3.761719-6.085938-8.332032-6.085938-12.226563v-10.242187c0-1.511719 1.28125-2.792969 2.792969-2.792969h7.882813v26.5625c0 .773437.035156 1.554687.0625 2.332031-1.628906-.992187-3.210938-2.210937-4.652344-3.632812zm-128.847656 285.917968h-9.539063c-1.21875 0-2.25-1.136718-2.25-2.480468v-38.179688c0-1.347656 1.03125-2.484375 2.25-2.484375h9.539063zm58.042968 25.128907v.039062 39.675781c0 3.59375-3.035156 6.628907-6.625 6.628907h-29.648437c-3.667969 0-6.652344-2.976563-6.652344-6.628907v-172.171874c0-3.609376 3.046875-6.65625 6.652344-6.65625h29.648437c3.589844 0 6.625 3.046874 6.625 6.65625zm326.96875-36.597657h-18.140624c.007812-.265624.03125-.527343.03125-.792968v-18.78125h18.109374zm-193.285156-386.492187c29.792969-13.101563 66.925782-10.722656 92.40625 5.90625 13.113282 8.5625 28.605469 24.597656 30.304688 52.992187-54.234375 19.664063-75.90625 11.449219-98.8125 2.765626-12.664063-4.800782-25.605469-9.703126-43.484375-9.703126-6.855469 0-14.4375.71875-23.011719 2.445313 4.007812-32.546875 27.863281-47.929687 42.597656-54.40625zm-41.578125 126.113281c0-.050781.003907-.097656.003907-.144531-.015626-1.066406-.253907-2.078125-.667969-2.992187-.601563-3.261719-.933594-6.488282-.933594-9.632813v-43.351563c28.847656-6.648437 44.15625-.851562 61.71875 5.804688 13 4.929688 26.929687 10.210938 47.015625 10.210938 14.96875-.003907 33.359375-2.941407 57.304688-11.148438v38.484375c0 3.109375-.320313 6.300781-.914063 9.527344-.441406.941406-.699219 1.988281-.714844 3.097656 0 .078125.007813.15625.007813.234375-6.566406 27.40625-32.421875 56.894531-61.363282 67.6875-14.777343 5.5-25.238281 5.507812-39.992187.027344-29.015625-10.773438-54.9375-40.328125-61.464844-67.804688zm35.6875 71.496094c6.539063 4.277344 13.425781 7.84375 20.515625 10.476562 9.070313 3.371094 17.144532 5.054688 25.21875 5.054688 8.101563 0 16.203125-1.695312 25.3125-5.085938 5.941406-2.21875 11.742188-5.09375 17.3125-8.484374 6.175782 6.042968 14.558594 10.113281 24.292969 11.828124-10.964844 11.042969-34.683594 20.539063-66.859375 20.539063-31.890625 0-56.792969-9.929687-67.738281-21.46875 8.921875-2.332031 16.511719-6.777344 21.945312-12.859375zm-112.679687 93.9375 1.164062-4.730469c9.367188-38.203125 14.996094-61.117187 45.992188-70.214843v47.863281c0 4.171875 3.382812 7.554687 7.558594 7.554687 4.171874 0 7.554687-3.382812 7.554687-7.554687v-50.949219c3.503906-.460938 7.25-.8125 11.257813-1.054688 11.300781 20.617188 44.949218 34.59375 84.945312 34.59375 39.785156 0 73.261719-13.820312 84.636719-34.226562 2.253906.195312 4.417969.433594 6.503906.710938v50.925781c0 4.175781 3.382813 7.558593 7.554687 7.558593 4.175782 0 7.558594-3.386718 7.558594-7.558593v-47.839844c31 9.117187 36.636719 32.101563 45.96875 70.195313l1.160156 4.730468v60.25h-18.109374v-.792968c0-8.042969-3.6875-12.847657-6.785157-15.460938-5.121093-4.332031-12.449219-6.191406-22.234375-5.648438v-30.511718c0-4.175782-3.382812-7.558594-7.558594-7.558594-4.171874 0-7.554687 3.382812-7.554687 7.558594v32.597656l-26.101563 4.421875c-8.199218 1.390625-17.625 5.265625-21.082031 15.394531h-93.207031c-3.640625-9.640625-12.847656-13.390625-20.878906-14.765625l-26.074219-4.421875v-33.226562c0-4.175782-3.382813-7.558594-7.554687-7.558594-4.171876 0-7.558594 3.382812-7.558594 7.558594v31.140625c-9.78125-.539063-17.109375 1.320312-22.234375 5.648437-3.09375 2.613282-6.785157 7.421875-6.785157 15.460938v.164062h-18.136718zm245.960937 107.960938c-8.65625 0-16.800781-1.605469-22.351562-4.40625-7.429688-3.753907-7.429688-8.003907-7.429688-9.402344v-24.394532l-.003906-.480468c-.023437-3.492188-.058594-7.835938 9.863281-9.515625l32.394532-5.492188h-.003907c12.984375-2.199219 17.457031.160157 18.777344 1.273438 1.011719.855469 1.425781 1.992187 1.425781 3.917969v34.691406c0 7.355468-15.265625 13.808594-32.671875 13.808594zm-44.867187-13.015626h-90.28125c0-.054687.007812-.109374.007812-.164062v-19.410156h90.242188v18.78125c0 .265625.023437.527344.03125.792968zm-201.09375-19.574218h18.136718v19.410156c0 .054688.007813.109375.007813.164062h-18.144531zm12.742187 53.953125c-4.394531 0-8.730469-.835938-12.742187-2.4375v-16.828125h24.527344c2.71875 2.859375 6.261718 5.367187 10.582031 7.425781.839843.398437 1.707031.777344 2.59375 1.140625-6.402344 6.746094-15.363281 10.699219-24.960938 10.699219zm20.511719-34.542969v-34.691406c0-1.925782.410156-3.0625 1.421875-3.914063.929687-.785156 3.410156-2.179687 9.300781-2.179687 2.5 0 5.609375.25 9.472656.90625l32.355469 5.488281c8.03125 1.371094 9.5625 4.464844 9.84375 7.441406 0 .28125.019531.558594.050781.835938.011719.425781.011719.847656.007813 1.257812v24.855469c0 .691406-.003906 2.085938-.90625 3.769531-.082031.136719-.167969.269531-.242187.410157-.984376 1.625-2.824219 3.476562-6.285157 5.222656-5.546875 2.800781-13.695312 4.40625-22.351562 4.40625-17.402344 0-32.667969-6.453125-32.667969-13.808594zm216.359375 35.347656c0 13.949219-4.746094 20.402344-18.117187 24.65625-37.070313 11.753906-118.828126 11.8125-150.816407.113282-13.761719-5.0625-18.410156-11.3125-18.410156-24.769532v-6.503906c1.210937.050781 2.429687.078125 3.652344.078125 11.105469 0 21.460937-2.140625 29.164062-6.027344 4.109375-2.078125 7.457031-4.652343 10.003907-7.617187h102.242187c2.472656 2.703125 5.644531 5.058594 9.464844 6.988281 7.703125 3.886719 18.058593 6.027344 29.164062 6.027344 1.222657 0 2.441407-.027344 3.648438-.078125v7.132812zm49.5-.804687c-9.832031 0-18.945313-4.125-25.367187-11.152344 1.039062-.414063 2.054687-.851563 3.027343-1.316406 4.003907-1.90625 7.34375-4.199219 9.976563-6.796875h25.105468v16.828125c-4.015624 1.601562-8.351562 2.4375-12.742187 2.4375zm70.78125 41.933593c0 3.65625-2.972656 6.628907-6.625 6.628907h-29.648437c-3.667969 0-6.652344-2.976563-6.652344-6.628907v-39.664062c0-.019531 0-.039062 0-.058594v-132.449218c0-3.609376 3.046875-6.65625 6.652344-6.65625h29.648437c3.652344 0 6.625 2.988281 6.625 6.65625zm26.933594-65.351562c0 1.34375-1.042969 2.480469-2.28125 2.480469h-9.539063v-43.113281h9.539063c1.238281 0 2.28125 1.136718 2.28125 2.480468zm0 0"/><path d="m223.621094 144.210938c4.175781 0 7.558594-3.382813 7.558594-7.558594v-8.523438c0-4.171875-3.382813-7.558594-7.558594-7.558594-4.175782 0-7.558594 3.386719-7.558594 7.558594v8.523438c0 4.175781 3.382812 7.558594 7.558594 7.558594zm0 0"/><path d="m294.324219 144.210938c4.175781 0 7.558593-3.382813 7.558593-7.558594v-8.523438c0-4.171875-3.382812-7.558594-7.558593-7.558594-4.171875 0-7.554688 3.386719-7.554688 7.558594v8.523438c0 4.175781 3.382813 7.558594 7.554688 7.558594zm0 0"/></svg>