<svg height="512pt" viewBox="0 0 512 512" width="512pt" xmlns="http://www.w3.org/2000/svg"><path d="m512 256c0 141.386719-114.613281 256-256 256s-256-114.613281-256-256 114.613281-256 256-256 256 114.613281 256 256zm0 0" fill="#e6646e"/><path d="m479.351562 223.351562c0 123.351563-100 223.347657-223.351562 223.347657s-223.351562-99.996094-223.351562-223.347657c0-123.355468 100-223.351562 223.351562-223.351562s223.351562 99.996094 223.351562 223.351562zm0 0" fill="#ff8087"/><path d="m379.335938 361h-246.671876c-34.96875 0-65.730468 19.480469-81.480468 48.59375 46.707031 62.183594 121.0625 102.40625 204.816406 102.40625s158.109375-40.222656 204.816406-102.40625c-15.75-29.113281-46.511718-48.59375-81.480468-48.59375zm0 0" fill="#edebed"/><path d="m457.625 361.152344v-14.511719c0-4.210937-3.410156-7.621094-7.621094-7.621094h-388.007812c-4.207032 0-7.617188 3.410157-7.617188 7.621094v14.511719c0 34.242187 27.757813 62.003906 62.003906 62.003906 4.207032 0 7.617188 3.410156 7.617188 7.617188v44.605468c38.546875 23.242188 83.707031 36.621094 132 36.621094s93.453125-13.378906 132-36.621094v-44.605468c0-4.207032 3.410156-7.617188 7.617188-7.617188h.003906c34.242187 0 62.003906-27.761719 62.003906-62.003906zm0 0" fill="#8cb4eb"/><path d="m204.523438 248.304688v118.789062c0 28.429688 23.046874 51.476562 51.476562 51.476562s51.476562-23.046874 51.476562-51.476562v-118.789062zm0 0" fill="#f7d291"/><path d="m204.523438 360.96875c15.96875 6.230469 33.328124 9.660156 51.476562 9.660156s35.507812-3.429687 51.476562-9.660156v-114.988281h-102.953124zm0 0" fill="#f0c382"/><path d="m256 350.628906c-67.378906 0-122-54.621094-122-122v-91.628906c0-67.378906 54.621094-122 122-122s122 54.621094 122 122v91.628906c0 67.378906-54.621094 122-122 122zm0 0" fill="#ffe1a0"/><path d="m378 188.785156v-51.785156c0-67.378906-54.621094-122-122-122s-122 54.621094-122 122v91.628906c0 53.179688 34.03125 98.402344 81.5 115.105469v-73.796875c0-14.214844-11.5625-25.777344-25.773438-25.777344h-.726562v-55.375zm0 0" fill="#f7d291"/><path d="m255.609375 0c-75.726563.210938-136.609375 62.597656-136.609375 138.324219v31.027343h15v26.660157h22.933594c5.28125 0 9.566406-4.285157 9.566406-9.570313v-50.214844c0-5.285156 4.285156-9.570312 9.566406-9.570312h159.867188c5.28125 0 9.566406 4.285156 9.566406 9.570312v50.214844c0 5.285156 4.285156 9.570313 9.566406 9.570313h22.933594v-26.660157h15v-32.351562c0-75.671875-61.667969-137.210938-137.390625-137zm0 0" fill="#64505a"/><path d="m166.457031 137c0-67.453125 49.007813-123.675781 113.28125-134.9375-7.835937-1.375-15.898437-2.0859375-24.128906-2.0625-75.726563.210938-136.609375 62.597656-136.609375 138.324219v31.027343h15v26.65625h22.933594c5.003906 0 9.105468-3.84375 9.527344-8.742187v-50.265625zm0 0" fill="#5a4650"/><path d="m278.5625 108.332031h-45.125c-1.34375 0-2.4375-1.089843-2.4375-2.4375v-103.457031c0-1.347656 1.089844-2.4375 2.4375-2.4375h45.125c1.347656 0 2.4375 1.089844 2.4375 2.4375v103.457031c0 1.347657-1.089844 2.4375-2.4375 2.4375zm0 0" fill="#739bd7"/><path d="m388.5 257.84375h-30.5v-89.0625h40.304688c10.875 0 19.695312 8.820312 19.695312 19.699219v39.863281c0 16.292969-13.207031 29.5-29.5 29.5zm0 0" fill="#f7d291"/><path d="m123.5 257.84375h30.5v-89.0625h-40.304688c-10.875 0-19.695312 8.820312-19.695312 19.699219v39.863281c0 16.292969 13.207031 29.5 29.5 29.5zm0 0" fill="#f0c382"/><path d="m374.84375 58.011719h-237.6875c-1.941406 0-3.734375.980469-4.820312 2.585937-14.726563 21.839844-23.335938 48.136719-23.335938 76.402344v117.332031c0 33.042969 26.785156 59.828125 59.832031 59.828125h20.894531c3.1875 0 5.773438-2.585937 5.773438-5.773437v-38.449219c0-3.191406-2.585938-5.777344-5.773438-5.777344h-14.949218c-3.191406 0-5.777344-2.585937-5.777344-5.773437v-83.828125c0-3.1875 2.585938-5.773438 5.777344-5.773438h162.449218c3.1875 0 5.773438 2.585938 5.773438 5.773438v83.828125c0 3.1875-2.585938 5.773437-5.773438 5.773437h-14.949218c-3.191406 0-5.777344 2.585938-5.777344 5.777344v38.449219c0 3.1875 2.585938 5.773437 5.777344 5.773437h20.894531c33.042969 0 59.832031-26.785156 59.832031-59.828125v-117.332031c0-28.265625-8.609375-54.5625-23.339844-76.402344-1.085937-1.605468-2.882812-2.585937-4.820312-2.585937zm0 0" fill="#8cb4eb"/><path d="m169.289062 260.183594c-.183593-.566406-.289062-1.167969-.289062-1.796875v-121.386719c0-28.265625 8.609375-54.5625 23.335938-76.402344 1.085937-1.605468 2.882812-2.585937 4.820312-2.585937h-60c-1.9375 0-3.734375.980469-4.820312 2.585937-14.726563 21.839844-23.335938 48.136719-23.335938 76.402344v117.332031c0 33.042969 26.785156 59.828125 59.832031 59.828125h20.894531c3.1875 0 5.773438-2.582031 5.773438-5.773437v-4.363281c-14.457031-9.71875-24.4375-25.578126-26.210938-43.839844zm0 0" fill="#739bd7"/><path d="m337.226562 284.160156c14.234376 0 25.773438-11.539062 25.773438-25.773437v-83.828125c0-14.234375-11.539062-25.773438-25.773438-25.773438h-162.453124c-14.234376 0-25.773438 11.539063-25.773438 25.773438v83.828125c0 14.234375 11.539062 25.773437 25.773438 25.773437.402343 0 .726562.328125.726562.726563v29.273437h14.226562c3.1875 0 5.773438-2.585937 5.773438-5.773437v-38.449219c0-3.191406-2.585938-5.777344-5.773438-5.777344h-14.953124c-3.1875 0-5.773438-2.585937-5.773438-5.773437v-83.828125c0-3.1875 2.585938-5.773438 5.773438-5.773438h162.453124c3.1875 0 5.773438 2.585938 5.773438 5.773438v83.828125c0 3.1875-2.585938 5.773437-5.773438 5.773437h-14.953124c-3.1875 0-5.773438 2.585938-5.773438 5.777344v38.449219c0 3.1875 2.585938 5.773437 5.773438 5.773437h14.226562v-29.273437c0-.402344.324219-.726563.726562-.726563zm0 0" fill="#739bd7"/><path d="m292.332031 128.332031h-72.667969c-2.023437 0-3.664062-1.640625-3.664062-3.667969v-32.664062c0-2.023438 1.640625-3.667969 3.664062-3.667969h72.667969c2.027344 0 3.667969 1.644531 3.667969 3.667969v32.667969c0 2.023437-1.640625 3.664062-3.667969 3.664062zm0 0" fill="#fff"/><path d="m256 124.667969v-32.667969c0-2.023438 1.640625-3.667969 3.667969-3.667969h-40c-2.027344 0-3.667969 1.644531-3.667969 3.667969v32.667969c0 2.023437 1.640625 3.667969 3.667969 3.667969h40c-2.027344-.003907-3.667969-1.644532-3.667969-3.667969zm0 0" fill="#edebed"/><path d="m331.339844 438.5h-150.679688c-8.648437 0-15.660156 7.011719-15.660156 15.660156v41.175782c28.277344 10.757812 58.945312 16.664062 91 16.664062s62.722656-5.90625 91-16.667969v-41.175781c0-8.644531-7.011719-15.65625-15.660156-15.65625zm0 0" fill="#739bd7"/></svg>