<svg id="Capa_1" enable-background="new 0 0 502.593 502.593" height="512" viewBox="0 0 502.593 502.593" width="512" xmlns="http://www.w3.org/2000/svg"><path d="m360.45 180.613 7.858-10.429c5.45-7.232 4.437-17.473-2.377-23.438-6.339-5.549-12.83-10.449-19.38-14.774-8.052-5.317-18.91-2.944-24.099 5.191l-6.09 9.547-6.867 11.291 42.038 33.578z" fill="#017bae"/><path d="m325.958 416.666c-7.6-5.66-13.87-11.33-18.28-15.65-11.05-10.79-15.04-26.64-10.42-41.38 23.13-73.75 60.07-107.31 84.53-122.1l10.787-5.827c-56.624-131.759-194.371-100.692-194.371-100.692l-77.39 3.21v300.04h24.94l37.5-3.4c19.38-1.76 38.89-1.3 58.16 1.35l72.7 10c5.06.7 10.03-1.82 12.47-6.31l7.531-13.856z" fill="#08a9f1"/><path d="m263.314 251.297c0-45.869-16.936-88.07-38.587-123.288-16.18.676-26.523 3.008-26.523 3.008l-77.39 3.21v300.04h24.94l36.422-3.302c36.9-40.957 81.138-105.525 81.138-179.668z" fill="#0290cf"/><path d="m493.666 331.86c-5.674-4.616-13.035-6.412-20.146-4.934l-77.457 15.523-16.875-93.876c-.733-4.077-4.63-6.786-8.709-6.055-4.076.733-6.787 4.632-6.055 8.709l15.169 84.383-51.772-33.862c-3.467-2.268-8.115-1.294-10.382 2.171-2.268 3.467-1.296 8.115 2.171 10.382l63.635 41.621 3.062 17.035-75.864 9.135c-4.112.495-7.045 4.23-6.55 8.343.459 3.809 3.695 6.604 7.437 6.604.3 0 .603-.018.906-.055l76.729-9.239 2.122 11.806c3.139 17.224 16.934 30.136 34.378 32.136l50.168 5.41c.918.105 1.836.157 2.751.157 5.908 0 11.662-2.168 16.116-6.14 5.143-4.587 8.093-11.17 8.093-18.062v-62.42c0-7.313-3.254-14.156-8.927-18.772zm-94.949 25.357 77.802-15.593c2.725-.565 5.523.117 7.68 1.872s3.395 4.357 3.395 7.138v10.129l-86.369 10.4zm85.799 62.704c-1.984 1.77-4.523 2.578-7.225 2.27l-50.168-5.41c-10.782-1.236-19.334-9.24-21.275-19.899l-1.965-10.931 83.71-10.08v37.183c0 2.658-1.093 5.097-3.077 6.867z" fill="#9c9c9c"/><path d="m197.82 372.159c5.699 3.316 12.317 5.224 19.385 5.224 21.325 0 38.612-17.287 38.612-38.613 0-16.296-10.1-30.224-24.378-35.892l-16.331-6.737-34.191 66.456z" fill="#fef1da"/><path d="m231.44 302.879-16.331-6.737-34.191 66.456 16.902 9.561c5.699 3.316 12.317 5.224 19.385 5.224 2.071 0 4.103-.168 6.085-.482 10.839-17.314 20.583-36.363 27.742-56.746-4.305-7.802-11.23-13.957-19.592-17.276z" fill="#fddeb0"/><path d="m239.314 251.297c0 90.628-75.755 167.602-106.712 195.274-7.297 6.523-18.593 6.523-25.89 0-30.957-27.672-106.712-104.647-106.712-195.274s75.755-167.602 106.712-195.274c7.297-6.523 18.593-6.523 25.89 0 30.957 27.672 106.712 104.646 106.712 195.274z" fill="#d6694b"/><path d="m61.262 251.297c0-76.215 53.574-142.77 89.026-178.47-6.704-6.751-12.763-12.403-17.686-16.804-7.297-6.523-18.593-6.523-25.89 0-30.957 27.672-106.712 104.646-106.712 195.274s75.755 167.602 106.712 195.273c7.297 6.523 18.593 6.523 25.89 0 4.923-4.401 10.982-10.053 17.686-16.804-35.453-35.7-89.026-102.254-89.026-178.469z" fill="#c4573a"/><path d="m208.099 355.714h-80.942v-28.78h12.289c4.142 0 7.5-3.358 7.5-7.5s-3.358-7.5-7.5-7.5h-12.289v-19.069h12.289c4.142 0 7.5-3.358 7.5-7.5s-3.358-7.5-7.5-7.5h-12.289v-19.069h12.289c4.142 0 7.5-3.358 7.5-7.5s-3.358-7.5-7.5-7.5h-12.289v-19.069h12.289c4.142 0 7.5-3.358 7.5-7.5s-3.358-7.5-7.5-7.5h-12.289v-19.069h12.289c4.142 0 7.5-3.358 7.5-7.5s-3.358-7.5-7.5-7.5h-12.289v-30.046h80.198c-6.619-11.246-13.821-21.798-21.163-31.523h-59.035v-61.46c-4.782-1.975-10.218-1.975-15 0v61.461h-59.035c-7.341 9.725-14.544 20.277-21.163 31.523h80.198v30.046h-14.256c-4.142 0-7.5 3.358-7.5 7.5s3.358 7.5 7.5 7.5h14.256v19.069h-14.256c-4.142 0-7.5 3.358-7.5 7.5s3.358 7.5 7.5 7.5h14.256v19.069h-14.256c-4.142 0-7.5 3.358-7.5 7.5s3.358 7.5 7.5 7.5h14.256v19.069h-14.256c-4.142 0-7.5 3.358-7.5 7.5s3.358 7.5 7.5 7.5h14.256v19.069h-14.256c-4.142 0-7.5 3.358-7.5 7.5s3.358 7.5 7.5 7.5h14.256v28.78h-80.942c6.537 11.233 13.669 21.782 20.956 31.522h59.987v62.727c4.782 1.975 10.218 1.975 15 0v-62.726h59.986c7.286-9.742 14.419-20.291 20.955-31.524z" fill="#fef1da"/><path d="m31.215 355.714c6.537 11.233 13.669 21.782 20.956 31.522h59.987v62.727c4.782 1.975 10.218 1.975 15 0v-45.456c-11.871-14.093-24.064-30.543-34.683-48.792h-61.26z" fill="#fddeb0"/><path d="m93.22 145.613c10.443-17.743 22.342-33.761 33.937-47.526v-45.456c-4.782-1.975-10.218-1.975-15 0v61.461h-59.035c-7.341 9.725-14.544 20.277-21.163 31.523h61.261z" fill="#fddeb0"/><path d="m392.654 231.887c3.44 8.02 0 17.39-7.81 21.3-19.89 9.93-56.5 37.52-79.53 110.99-1.62 5.14-.21 10.74 3.65 14.5 5.4 5.28 14.06 12.96 24.53 19.46 5.7 3.54 7.72 10.85 4.52 16.74l-7.02 12.92-1.48-.8-20.78-13.72c-7.6-5.66-13.87-11.33-18.28-15.65-11.05-10.79-15.04-26.64-10.42-41.38 23.13-73.75 60.07-107.31 84.53-122.1l22.9-12.37.43-.22c1.62 3.28 3.18 6.67 4.69 10.17.02.06.05.11.07.16z" fill="#fef1da"/></svg>