<svg height="480pt" viewBox="0 0 480.00097 480" width="480pt" xmlns="http://www.w3.org/2000/svg"><path d="m52.042969 389.03125c5.574219 6.972656 11.578125 13.710938 18.046875 20.167969 94.054687 93.929687 246.554687 93.929687 340.613281 0 27.449219-27.410157 46.871094-59.792969 58.300781-94.246094-5.574218-6.96875-12.011718-13.3125-18.046875-20.167969-82.835937-94.121094-209.894531-68.085937-209.894531-68.085937s-52.378906 94.597656-165.015625 111.179687c0 0-32.074219 5.460938-54.015625 2.824219.003906 0 11.964844 28.160156 30.011719 48.328125zm0 0" fill="#bf6c0d"/><path d="m407.417969 257.566406c-77.535157-49.050781-166.355469-30.867187-166.355469-30.867187s-52.378906 94.597656-165.015625 111.179687c0 0-32.066406 5.460938-54.007813 2.824219 8.582032 18.359375 19.414063 35.453125 32.148438 50.933594.453125.550781.898438 1.105469 1.359375 1.652343.875 1.046876 1.761719 2.074219 2.652344 3.101563.46875.542969.9375 1.085937 1.414062 1.632813.957031 1.082031 1.921875 2.152343 2.898438 3.21875.402343.441406.804687.882812 1.210937 1.324218 1.054688 1.132813 2.117188 2.257813 3.191406 3.371094.328126.339844.65625.675781.988282 1.015625 1.191406 1.21875 2.386718 2.429687 3.601562 3.625.066406.066406.136719.128906.203125.195313 1.390625 1.363281 2.796875 2.714843 4.21875 4.042968 30.144531 13.550782 63.582031 21.097656 98.78125 21.097656 111.488281.003907 205.265625-75.648437 232.710938-178.347656zm0 0" fill="#db9c2e"/><path d="m240.851562 1.78125c-133.019531 0-240.851562 107.6875-240.851562 240.523438 0 50.570312 15.640625 97.484374 42.335938 136.210937 41.851562 35.074219 95.8125 56.207031 154.722656 56.207031 133.019531 0 240.851562-107.683594 240.851562-240.523437 0-50.566407-15.636718-97.484375-42.335937-136.207031-41.851563-35.074219-95.808594-56.210938-154.722657-56.210938zm0 0" fill="#fce575"/><path d="m395.574219 57.988281c-41.851563-35.070312-95.808594-56.207031-154.722657-56.207031-113.402343 0-208.484374 78.277344-234.066406 183.671875 25.582032 105.398437 120.664063 183.671875 234.066406 183.671875 69.425782 0 131.976563-29.34375 175.933594-76.277344 13.570313-30.101562 21.125-63.492187 21.125-98.648437 0-50.566407-15.636718-97.484375-42.335937-136.210938zm0 0" fill="#ffdf74"/><path d="m240.851562 1.78125c-80.035156 0-150.941406 39-194.738281 98.992188 16.28125 117.027343 116.859375 207.132812 238.53125 207.132812 54.042969 0 103.925781-17.777344 144.113281-47.789062 5.960938-20.945313 9.152344-43.058594 9.152344-65.914063 0-50.570313-15.636718-97.488281-42.335937-136.210937-41.851563-35.074219-95.8125-56.210938-154.722657-56.210938zm0 0" fill="#ffd551"/><path d="m394.390625 56.808594c-41.851563-35.070313-95.816406-56.203125-154.726563-56.203125-56.105468 0-107.730468 19.15625-148.675781 51.28125 21.855469 110.378906 119.316407 193.613281 236.257813 193.613281zm0 0" fill="#ffdf74"/><path d="m422.164062 83.632812h.003907c-8.261719-10.324218-27.777344-26.667968-27.777344-26.667968-55.839844-46.195313-108.898437-52.679688-108.898437-52.679688-.167969-.023437-.332032-.042968-.5-.070312-23.769532-4.523438-46.5-4.738282-67.484376-2.292969-81.921874 7.285156-126.519531 50.117187-126.519531 50.117187s3.289063 32.667969 30.332031 77.820313l-.019531-.015625s3.113281 5.832031 9.570313 14.859375c.007812.011719 21.574218 36.589844 72.027344 66.519531 1.445312.875 2.898437 1.742188 4.382812 2.597656 19.738281 11.621094 33.792969 15.972657 33.792969 15.972657s134.308593-31.828125 227.199219 87.316406c36.59375-125.066406-21.972657-206.535156-46.109376-233.476563zm0 0" fill="#a56021"/><path d="m479.910156 232.007812c-11.734375-30.425781-29.871094-58.957031-54.441406-83.496093-83.8125-83.695313-214.023438-92.8125-307.945312-27.351563l-.796876.726563s21.015626 46.421875 73.898438 81.269531c3.632812 2.535156 7.414062 5.046875 11.355469 7.511719 0 0 .476562.269531 1.300781.734375 10.335938 6.367187 19.34375 10.832031 25.980469 13.757812 5.292969 2.550782 9.824219 4.460938 11.824219 4.632813 0 0 134.308593-31.828125 227.199218 87.316406.003906-.007813.003906-.011719.007813-.019531 9.101562-31.117188 12.304687-59.53125 11.617187-85.082032zm0 0" fill="#bf6c0d"/><path d="m159.445312 13.765625c-1.121093.398437-2.242187.789063-3.355468 1.207031-.363282.136719-.722656.28125-1.085938.414063-43.902344 16.738281-81.644531 45.929687-108.890625 83.25 3.398438 24.421875 10.476563 47.660156 20.640625 69.160156 27.941406-88.675781 105.988282-155.125 200.941406-166.160156-9.1875-1.066407-18.527343-1.63281275-28-1.63281275-28.148437 0-55.152343 4.85937475-80.25 13.76171875zm0 0" fill="#ffc34c"/><path d="m52.042969 389.03125c5.574219 6.972656 11.578125 13.710938 18.046875 20.167969 94.054687 93.929687 246.554687 93.929687 340.613281 0 27.449219-27.410157 46.871094-59.792969 58.300781-94.246094-5.574218-6.96875-12.011718-13.3125-18.046875-20.167969-82.835937-94.121094-209.894531-68.085937-209.894531-68.085937s-52.378906 94.597656-165.015625 111.179687c0 0-32.074219 5.460938-54.015625 2.824219.003906 0 11.964844 28.160156 30.011719 48.328125zm0 0" fill="#ffc34c"/><path d="m285.488281 465.160156c-2.796875 0-5.296875-1.964844-5.875-4.8125-.65625-3.246094 1.445313-6.414062 4.691407-7.070312 41.941406-8.480469 80.273437-29.105469 110.851562-59.644532 22.28125-22.246093 39.125-48.285156 50.066406-77.394531 1.164063-3.105469 4.628906-4.660156 7.726563-3.507812 3.101562 1.167969 4.671875 4.625 3.503906 7.726562-11.546875 30.726563-29.316406 58.203125-52.816406 81.667969-32.25 32.207031-72.691407 53.964844-116.949219 62.914062-.402344.082032-.804688.121094-1.199219.121094zm0 0" fill="#ffd551"/><path d="m407.417969 257.566406c-77.535157-49.050781-166.355469-30.867187-166.355469-30.867187s-52.378906 94.597656-165.015625 111.179687c0 0-32.066406 5.460938-54.007813 2.824219 8.582032 18.359375 19.414063 35.453125 32.148438 50.933594.453125.550781.898438 1.105469 1.359375 1.652343.875 1.046876 1.761719 2.074219 2.652344 3.101563.46875.542969.9375 1.085937 1.414062 1.632813.957031 1.082031 1.921875 2.152343 2.898438 3.21875.402343.441406.804687.882812 1.210937 1.324218 1.054688 1.132813 2.117188 2.257813 3.191406 3.371094.328126.339844.65625.675781.988282 1.015625 1.191406 1.21875 2.386718 2.429687 3.601562 3.625.066406.066406.136719.128906.203125.195313 1.390625 1.363281 2.796875 2.714843 4.21875 4.042968 30.144531 13.550782 63.582031 21.097656 98.78125 21.097656 111.488281.003907 205.265625-75.648437 232.710938-178.347656zm0 0" fill="#f9bb32"/><path d="m241.0625 226.695312s-41.441406 74.839844-129.863281 103.054688c-4.480469 1.414062-8.890625 2.660156-13.199219 3.753906-.042969.011719-.085938.023438-.128906.03125-.910156.234375-1.808594.449219-2.710938.664063-6.167968 1.46875-12.53125 2.710937-19.113281 3.679687 0 0-13.480469 2.292969-28.9375 3.1875-.085937.003906-.175781.007813-.265625.011719-.878906.039063-1.738281.074219-2.578125.101563-.035156 0-.066406 0-.101563.003906-13.746093.449218-22.113281-.480469-22.113281-.480469s.542969 1.152344 1.488281 3.082031c1.347657 2.785156 2.734376 5.546875 4.183594 8.265625 5.222656 10.019531 13.128906 24.074219 19.671875 30.988281 20.976563 5.957032 43.117188 9.144532 66.003907 9.144532 105.503906 0 195.152343-67.746094 227.730468-162.050782-54.414062-12.777343-100.066406-3.4375-100.066406-3.4375zm0 0" fill="#db9c2e"/><path d="m74.902344 413.867188c.496094.472656 1.003906.929687 1.503906 1.394531 1.132812 1.046875 2.265625 2.09375 3.40625 3.117187.609375.546875 1.226562 1.078125 1.835938 1.617188 1.054687.925781 2.117187 1.84375 3.179687 2.75.652344.550781 1.3125 1.097656 1.96875 1.640625 1.054687.875 2.113281 1.738281 3.183594 2.59375.65625.527343 1.3125 1.046875 1.972656 1.5625 1.109375.875 2.230469 1.726562 3.351563 2.578125.621093.464844 1.238281.9375 1.859374 1.398437 1.257813.933594 2.527344 1.84375 3.800782 2.746094.492187.351563.984375.710937 1.480468 1.058594 3.589844 2.511719 7.230469 4.914062 10.921876 7.203125.410156.253906.824218.5 1.234374.75 1.433594.878906 2.867188 1.742187 4.3125 2.589844.5625.324218 1.125.644531 1.691407.96875 1.316406.753906 2.632812 1.496093 3.960937 2.222656.601563.328125 1.207032.652344 1.808594.980468 1.320312.707032 2.648438 1.402344 3.980469 2.085938.585937.300781 1.171875.601562 1.757812.898438 1.40625.703124 2.816407 1.394531 4.230469 2.070312.507812.242188 1.015625.488281 1.527344.730469 1.644531.769531 3.292968 1.519531 4.949218 2.253906.28125.121094.558594.25.835938.375 4.035156 1.765625 8.113281 3.417969 12.21875 4.953125.039062.015625.082031.027344.121094.042969 1.960937.730469 3.929687 1.429687 5.90625 2.109375.3125.109375.625.210937.9375.316406 1.722656.582031 3.453125 1.148438 5.1875 1.695312.382812.117188.769531.234376 1.15625.355469 1.699218.523438 3.410156 1.027344 5.117187 1.515625.359375.101563.71875.207032 1.078125.304688 1.8125.503906 3.628906.988281 5.449219 1.449218.238281.0625.472656.125.710937.183594 10.605469 2.65625 21.351563 4.582032 32.167969 5.78125.109375.011719.21875.023438.328125.035156 2.066406.226563 4.132813.425782 6.203125.597657.109375.007812.21875.019531.328125.027343 15.292969 1.253907 30.679688 1.054688 45.941406-.597656.007813 0 .015626-.003906.023438-.003906-85.054688-10.304688-156.394531-65.085938-190.054688-140.402344-.042968.007813-.085937.015625-.128906.019532-.101562.015624-.199218.035156-.296875.046874 0 0-32.074219 5.460938-54.015625 2.820313.003906.011719 2.785156 6.550781 7.675782 15.574219.019531.035156.035156.066406.054687.097656 4.90625 8.835938 10.355469 17.324219 16.296875 25.425781.007812.007813.011719.019531.023438.027344.9375 1.21875 1.894531 2.425781 2.875 3.613281.03125.042969.066406.082032.101562.121094.96875 1.171875 1.953125 2.320312 2.960938 3.449219.007812.007812.011718.019531.019531.027343 1.394531 1.742188 2.816406 3.46875 4.261719 5.183594 1.449218 1.714844 2.925781 3.410156 4.425781 5.09375 3.007812 3.363282 6.125 6.660156 9.359375 9.886719 1.585937 1.582031 3.191406 3.136719 4.8125 4.664063zm0 0" fill="#f9bb32"/><path d="m76.476562 337.816406c-.128906.019532-.253906.039063-.382812.058594-.015625 0-.027344.003906-.042969.003906 0 0-13.789062 2.347656-29.476562 3.222656-.234375.011719-.472657.023438-.710938.035157-2.023437.109375-4.070312.191406-6.128906.238281-.261719.003906-.527344.007812-.789063.011719-2.019531.042969-4.042968.046875-6.042968.011719-.097656 0-.191406-.007813-.289063-.007813-1.402343-.027344-2.796875-.074219-4.167969-.144531-.5625-.035156-1.121093-.070313-1.679687-.109375-.164063-.011719-.335937-.019531-.5-.03125-.257813-.019531-.511719-.042969-.769531-.0625-1.171875-.097657-2.328125-.203125-3.453125-.339844 8.582031 18.363281 19.414062 35.453125 32.144531 50.9375.453125.550781.902344 1.105469 1.359375 1.652344.859375 1.027343 1.730469 2.035156 2.605469 3.042969.492187.574218.988281 1.144531 1.488281 1.710937.933594 1.0625 1.882813 2.113281 2.835937 3.15625.425782.46875.855469.933594 1.289063 1.398437 1.023437 1.105469 2.058594 2.203126 3.105469 3.289063.347656.359375.695312.714844 1.042968 1.074219 1.132813 1.160156 2.273438 2.3125 3.429688 3.449218.265625.261719.535156.519532.800781.78125 1.25 1.21875 2.503907 2.429688 3.78125 3.621094 24.785157 11.144532 51.796875 18.214844 80.1875 20.378906-34.472656-24.683593-62.148437-58.25-79.636719-97.378906zm0 0" fill="#db9c2e"/><path d="m110.078125 392.125c-13.476563-16.425781-24.824219-34.667969-33.605469-54.3125-.140625.023438-.28125.046875-.425781.066406 0 0-31.875 5.425782-53.8125 2.84375-.109375-.011718-.183594-.019531-.183594-.019531s.285157.601563.777344 1.628906c.203125.421875.410156.839844.617187 1.261719.03125.070312.058594.121094.09375.191406 1.183594 2.445313 2.410157 4.859375 3.671876 7.253906 5.925781 11.230469 12.710937 21.933594 20.277343 32.027344 19.925781 5.648438 40.917969 8.769532 62.589844 9.058594zm0 0" fill="#bf6c0d"/><path d="m6.785156 183.320312s-22.816406 89.339844 16.046875 159.011719l53.21875-4.453125s-34.945312-62.449218-9.296875-170.082031zm0 0" fill="#ffdf74"/><path d="m437.855469 222.757812c-75.148438-75.046874-187.601563-90.128906-277.75-45.253906l-1.023438.527344s14.542969 14.15625 25.238281 21.121094c0 0 .78125.546875 1.992188 1.394531h.003906c3.414063 2.378906 10.347656 7.152344 13.898438 9.148437 2.199218 1.382813 4.148437 2.539063 5.410156 3.164063 8.394531 5.039063 15.824219 8.78125 21.691406 11.457031 6.039063 2.960938 11.570313 5.375 13.773438 5.507813 0 0 134.285156-31.820313 227.175781 87.285156.066406-.203125.132813-.410156.203125-.613281 4.207031-14.488282 7.136719-28.390625 8.992188-41.6875-10.523438-18.636719-23.714844-36.183594-39.605469-52.050782zm0 0" fill="#e58d23"/><g fill="#ffd551"><path d="m175.15625 32.445312c.039062-.023437.082031-.046874.121094-.070312-.039063.023438-.082032.046875-.121094.070312zm0 0"/><path d="m190.386719 24.3125c.582031-.285156 1.164062-.566406 1.746093-.847656-.582031.28125-1.164062.5625-1.746093.847656zm0 0"/><path d="m185.226562 26.910156c.519532-.269531 1.042969-.535156 1.5625-.800781-.519531.265625-1.042968.53125-1.5625.800781zm0 0"/><path d="m180.152344 29.621094c.390625-.214844.785156-.421875 1.171875-.632813-.386719.210938-.78125.417969-1.171875.632813zm0 0"/><path d="m267.695312 1.636719c-3.371093-.390625-6.765624-.691407-10.171874-.945313l-.023438.003906c3.292969.238282 6.683594.550782 10.160156.945313-.121094.015625-.238281.035156-.359375.046875.132813-.015625.261719-.035156.394531-.050781zm0 0"/><path d="m164.390625 39.101562c.226563-.144531.445313-.296874.667969-.441406-.222656.144532-.445313.296875-.667969.441406zm0 0"/><path d="m159.210938 42.59375c.347656-.238281.691406-.484375 1.042968-.722656-.351562.238281-.695312.484375-1.042968.722656zm0 0"/><path d="m202.132812 2.933594c.214844-.035156.417969-.066406.628907-.097656h-.019531s.058593-.011719.078124-.015626c-.230468.035157-.457031.078126-.6875.113282zm0 0"/><path d="m144.105469 19.882812c1.050781-.441406 2.113281-.878906 3.195312-1.316406l-.003906.003906s.378906-.195312 1.097656-.535156c-1.441406.597656-2.863281 1.222656-4.289062 1.847656zm0 0"/><path d="m145.128906 53.125c.328125-.265625.660156-.527344.992188-.789062-.332032.261718-.664063.523437-.992188.789062zm0 0"/><path d="m195.640625 21.824219c.605469-.28125 1.214844-.558594 1.824219-.832031-.609375.273437-1.214844.550781-1.824219.832031zm0 0"/><path d="m259.761719 2.707031c.664062-.097656 1.328125-.207031 1.992187-.300781-.664062.09375-1.328125.203125-1.992187.300781zm0 0"/><path d="m140.699219 56.785156c.21875-.1875.441406-.367187.660156-.550781-.21875.183594-.441406.363281-.660156.550781zm0 0"/><path d="m201.023438 19.429688c.597656-.257813 1.195312-.515626 1.796874-.769532-.601562.257813-1.199218.515625-1.796874.769532zm0 0"/><path d="m149.675781 49.550781c.375-.289062.753907-.578125 1.132813-.863281-.378906.285156-.757813.574219-1.132813.863281zm0 0"/><path d="m154.347656 46.050781c.386719-.28125.773438-.5625 1.164063-.84375-.390625.28125-.777344.5625-1.164063.84375zm0 0"/><path d="m224.804688 10.667969c.582031-.179688 1.167968-.347657 1.753906-.523438-.585938.175781-1.171875.34375-1.753906.523438zm0 0"/><path d="m118.863281 77.765625c.214844-.234375.429688-.46875.644531-.703125-.214843.234375-.429687.46875-.644531.703125zm0 0"/><path d="m103.914062 95.710938c-11.195312-26.558594-12.925781-43.671876-12.925781-43.671876s.410157-.386718 1.195313-1.078124c-41.804688 32.800781-72.472656 79.117187-85.398438 132.359374 9.320313 38.398438 27.871094 73.191407 53.167969 101.917969-2.792969-14.648437-4.257813-29.773437-4.257813-45.234375 0-54.167968 17.949219-104.132812 48.21875-144.292968zm0 0"/><path d="m123.085938 73.28125c.132812-.136719.265624-.28125.402343-.417969-.136719.140625-.269531.28125-.402343.417969zm0 0"/><path d="m235.902344.0429688c-.910156.0117187-1.816406.03125-2.722656.0546874.898437-.0195312 1.789062-.0429687 2.722656-.0546874zm0 0"/><path d="m111.101562 86.644531c.214844-.257812.429688-.511719.644532-.769531-.214844.257812-.429688.511719-.644532.769531zm0 0"/><path d="m114.894531 82.199219c.234375-.273438.472657-.542969.710938-.8125-.238281.273437-.476563.539062-.710938.8125zm0 0"/><path d="m107.445312 91.148438c.152344-.191407.304688-.378907.453126-.566407-.152344.1875-.300782.375-.453126.566407zm0 0"/><path d="m244.972656.09375c1.265625.019531 2.566406.066406 3.851563.101562-3.03125-.1132808-6.070313-.195312-9.128907-.195312-1.269531 0-2.53125.0234375-3.792968.0429688 2.882812-.0351563 5.910156-.0234376 9.070312.0507812zm0 0"/><path d="m206.597656 17.121094c.539063-.214844 1.078125-.441406 1.617188-.652344-.539063.210938-1.078125.4375-1.617188.652344zm0 0"/><path d="m212.671875 14.78125c.332031-.121094.65625-.25.988281-.371094-.332031.121094-.65625.25-.988281.371094zm0 0"/><path d="m247.636719 4.847656c.789062-.160156 1.574219-.320312 2.367187-.472656-.792968.152344-1.578125.3125-2.367187.472656zm0 0"/><path d="m253.574219 3.71875c.761719-.132812 1.523437-.273438 2.285156-.398438-.761719.125-1.523437.265626-2.285156.398438zm0 0"/><path d="m241.816406 6.105469c.785156-.179688 1.566406-.355469 2.355469-.527344-.789063.171875-1.570313.347656-2.355469.527344zm0 0"/><path d="m236.070312 7.496094c.761719-.195313 1.527344-.378906 2.289063-.566406-.761719.183593-1.523437.371093-2.289063.566406zm0 0"/><path d="m219.265625 12.449219c.144531-.046875.289063-.09375.433594-.140625-.144531.046875-.289063.09375-.433594.140625zm0 0"/><path d="m230.402344 9.015625c.710937-.199219 1.421875-.390625 2.136718-.582031-.714843.191406-1.425781.386718-2.136718.582031zm0 0"/></g><path d="m159.265625 13.832031c-1.046875.375-2.09375.742188-3.132813 1.128907-.394531.148437-.789062.296874-1.183593.453124-.695313.265626-1.382813.546876-2.078125.820313-1.648438.644531-3.292969 1.296875-4.921875 1.980469-.652344.273437-1.300781.558594-1.949219.835937-1.546875.664063-3.09375 1.332031-4.625 2.03125-.703125.320313-1.402344.652344-2.101562.976563-1.464844.683594-2.921876 1.367187-4.371094 2.074218-.738282.363282-1.464844.734376-2.199219 1.105469-1.394531.703125-2.78125 1.410157-4.160156 2.132813-.765625.402344-1.523438.820312-2.285157 1.230468-1.328124.71875-2.648437 1.441407-3.960937 2.183594-.785156.449219-1.566406.898438-2.34375 1.355469-1.269531.734375-2.539063 1.480469-3.792969 2.242187-.796875.480469-1.589844.972657-2.378906 1.464844-1.21875.757813-2.429688 1.523438-3.632812 2.300782-.808594.519531-1.609376 1.046874-2.410157 1.578124-1.167969.777344-2.328125 1.558594-3.480469 2.355469-.8125.558594-1.625 1.125-2.429687 1.695313-1.121094.792968-2.230469 1.59375-3.339844 2.40625-.8125.597656-1.625 1.199218-2.429687 1.804687-1.078125.808594-2.148438 1.628907-3.210938 2.457031-.8125.632813-1.621094 1.269532-2.421875 1.910157-1.035156.828125-2.058593 1.667969-3.082031 2.511719-.808594.667968-1.617188 1.339843-2.417969 2.019531-.992187.84375-1.976562 1.699219-2.953125 2.554687-.800781.707032-1.605468 1.410156-2.398437 2.128906-.953125.859376-1.898438 1.730469-2.839844 2.609376-.789063.734374-1.582031 1.472656-2.363281 2.21875-.921875.875-1.828125 1.769531-2.730469 2.660156-.777344.769531-1.558594 1.535156-2.328125 2.3125-.882812.898437-1.757812 1.808594-2.628906 2.722656-.757813.792969-1.527344 1.585938-2.277344 2.394531-.855469.917969-1.695312 1.855469-2.535156 2.789063-.742188.820312-1.484375 1.636718-2.214844 2.464844-.832031.949218-1.644531 1.914062-2.460938 2.875-.714843.835937-1.429687 1.667968-2.128906 2.511718-.8125.984375-1.605468 1.984375-2.40625 2.984375-.675781.84375-1.359375 1.683594-2.027344 2.542969-.800781 1.027344-1.578124 2.070312-2.363281 3.113281-.636719.84375-1.28125 1.683594-1.90625 2.535157-.085937.117187-.164062.234374-.25.351562 3.398438 24.414062 10.476563 47.644531 20.640625 69.140625 27.941406-88.675781 105.988282-155.125 200.941406-166.160156-9.1875-1.066407-18.527343-1.63281275-28-1.63281275-28.214843 0-55.285156 4.88281275-80.429687 13.82812475zm0 0" fill="#ffc34c"/><path d="m257.5.695312.570312-.09375c-4.476562-.28125-8.839843-.441406-13.097656-.507812-25.269531-.589844-42.234375 2.742188-42.234375 2.742188h.023438c-34.894531 5.164062-55.46875 15.730468-55.46875 15.730468h.007812c-2.625 1.050782-5.164062 2.125-7.613281 3.210938-15.511719 7.121094-30.136719 15.835937-43.65625 25.949218-3.332031 2.675782-5.046875 4.3125-5.046875 4.3125s1.730469 17.109376 12.925781 43.667969c38.5-51.082031 96.933594-86.292969 163.746094-94.070312-3.472656-.390625-6.863281-.703125-10.15625-.941407zm0 0" fill="#8c4c17"/><path d="m121.914062 146.054688c0 9.941406-8.058593 18-18 18-9.941406 0-18-8.058594-18-18 0-9.9375 8.058594-18 18-18 9.941407 0 18 8.0625 18 18zm0 0" fill="#ffc34c"/><path d="m186.160156 408.722656c0 9.941406-8.058594 18-18 18s-18-8.058594-18-18 8.058594-18 18-18 18 8.058594 18 18zm0 0" fill="#db9c2e"/></svg>