<?xml version="1.0" encoding="iso-8859-1"?>
<!-- Generator: Adobe Illustrator 19.0.0, SVG Export Plug-In . SVG Version: 6.00 Build 0)  -->
<svg version="1.1" id="Capa_1" xmlns="http://www.w3.org/2000/svg" xmlns:xlink="http://www.w3.org/1999/xlink" x="0px" y="0px"
	 viewBox="0 0 512 512" style="enable-background:new 0 0 512 512;" xml:space="preserve">
<path style="fill:#FF8646;" d="M504.5,148.362H7.5c-4.142,0-7.5-3.357-7.5-7.5s3.358-7.5,7.5-7.5h497c4.142,0,7.5,3.357,7.5,7.5
	S508.642,148.362,504.5,148.362z"/>
<path style="fill:#FF4128;" d="M211,223.362c-45.491,0-82.5-37.01-82.5-82.5c0-4.143-3.358-7.5-7.5-7.5s-7.5,3.357-7.5,7.5
	c0,53.762,43.738,97.5,97.5,97.5h45v-15H211z"/>
<path style="fill:#CF301B;" d="M368.5,245.862h-15c0-4.136-3.364-7.5-7.5-7.5h-90v-15h90
	C358.407,223.362,368.5,233.456,368.5,245.862z"/>
<path style="fill:#FF4128;" d="M461.084,451.515l-29.061-9.687l-162.927-107.46l-8.259,12.521l163.746,108
	c0.538,0.348,1.121,0.644,1.758,0.856l30,10c3.928,1.306,8.177-0.814,9.487-4.743C467.137,457.073,465.014,452.825,461.084,451.515z
	"/>
<path style="fill:#FF6753;" d="M256,371.896v-15H141.766c-4.142,0-7.5,3.357-7.5,7.5v78.828l-24.872,8.291
	c-3.93,1.31-6.053,5.558-4.744,9.487c1.31,3.93,5.559,6.053,9.487,4.743l30-10c3.143-1.047,5.124-3.975,5.125-7.115
	c0.004,0,0.004-0.133,0.004-0.133c0-0.024,0-76.601,0-76.601L256,371.896L256,371.896z"/>
<path style="fill:#E18F4E;" d="M270.092,120.41L256,180.863c24.853,0,45-20.147,45-45L270.092,120.41z"/>
<path style="fill:#FFA754;" d="M271,135.863c0-5.429-0.321-10.634-0.908-15.453l-41.095-20.546
	C218.07,108.074,211,121.142,211,135.863c0,24.853,20.147,45,45,45C264.284,180.863,271,160.716,271,135.863z"/>
<path style="fill:#40211D;" d="M256,90.863l14.899,39.832c9.413,3.341,19.543,5.168,30.101,5.168
	C301,111.01,280.853,90.863,256,90.863z"/>
<path style="fill:#60312C;" d="M256,90.863c-10.132,0-19.481,3.35-27.003,9.002c10.532,14.02,25.066,24.856,41.901,30.831
	C270.044,108.278,263.701,90.863,256,90.863z"/>
<circle style="fill:#40211D;" cx="256" cy="68.367" r="22.5"/>
<path style="fill:#CF301B;" d="M301,230.863c0-11.046-8.954-20-20-20h-30l5,195h30c8.284,0,15-6.716,15-15v-60l-13.684-15.79
	L301,300.863V230.863z"/>
<path style="fill:#FF4128;" d="M251,210.863h-20c-11.046,0-20,8.954-20,20v70l22.5,15l-22.5,15v60c0,8.284,6.716,15,15,15h30
	c8.284,0,15-6.716,15-15v-160C271,219.817,262.046,210.863,251,210.863z"/>
<polygon style="fill:#353535;" points="271,300.863 251,315.863 271,330.863 301,330.863 301,300.863 "/>
<rect x="211" y="300.867" style="fill:#4F4F4F;" width="60" height="30"/>
<path style="fill:#E18F4E;" d="M353.5,245.862c0,4.136-3.364,7.5-7.5,7.5h-70c-6.893,0-12.5-5.607-12.5-12.5
	c0-4.143-3.358-7.5-7.5-7.5s-7.5,3.357-7.5,7.5c0,15.163,12.336,27.5,27.5,27.5h70c12.407,0,22.5-10.094,22.5-22.5L353.5,245.862
	L353.5,245.862z"/>
<g>
</g>
<g>
</g>
<g>
</g>
<g>
</g>
<g>
</g>
<g>
</g>
<g>
</g>
<g>
</g>
<g>
</g>
<g>
</g>
<g>
</g>
<g>
</g>
<g>
</g>
<g>
</g>
<g>
</g>
</svg>
