<svg height="512" viewBox="0 0 512 512" width="512" xmlns="http://www.w3.org/2000/svg"><g id="filled_outline" data-name="filled outline"><path d="m232 176h48v40h-48z" fill="#fad7be"/><path d="m232 185.526a47.723 47.723 0 0 0 48 0v-9.526h-48z" fill="#eeccb6"/><rect fill="#fad7be" height="112" rx="48" width="96" x="208" y="72"/><path d="m256 160a8 8 0 0 1 -8-8v-16h-8a8 8 0 0 1 0-16h16a8 8 0 0 1 8 8v24a8 8 0 0 1 -8 8z" fill="#e0c0ab"/><path d="m256 72a47.832 47.832 0 0 0 -33.737 13.873l1.737 2.127a53.334 53.334 0 0 0 64 0s.655-.863 1.653-2.2a47.828 47.828 0 0 0 -33.653-13.8z" fill="#a98e72"/><g fill="#fbeebd"><path d="m448 304.18a8 8 0 0 1 -7.684-10.242 193.31 193.31 0 0 0 1.125-103.86 8 8 0 0 1 15.453-4.156 209.354 209.354 0 0 1 -1.218 112.5 8.005 8.005 0 0 1 -7.676 5.758z"/><path d="m437.562 164a8 8 0 0 1 -7.261-4.633 193 193 0 0 0 -112.86-101.328 8 8 0 0 1 5.118-15.156 209.056 209.056 0 0 1 122.257 109.75 8 8 0 0 1 -3.894 10.625 7.9 7.9 0 0 1 -3.36.742z"/><path d="m288.012 50.547a7.865 7.865 0 0 1 -1.285-.1 195.5 195.5 0 0 0 -53.782-1.078 8 8 0 0 1 -1.89-15.89 211.445 211.445 0 0 1 58.218 1.171 8 8 0 0 1 -1.261 15.9z"/><path d="m144.008 82.281a8 8 0 0 1 -4.492-14.625 206.8 206.8 0 0 1 49.925-24.773 8 8 0 1 1 5.118 15.156 191.3 191.3 0 0 0 -46.075 22.867 7.953 7.953 0 0 1 -4.476 1.375z"/><path d="m59.238 212a7.522 7.522 0 0 1 -1.437-.133 8 8 0 0 1 -6.442-9.3 208 208 0 0 1 41.441-91.528 8 8 0 1 1 12.547 9.922 192.009 192.009 0 0 0 -38.247 84.469 8 8 0 0 1 -7.862 6.57z"/><path d="m65.152 308a8.009 8.009 0 0 1 -7.629-5.6 207.923 207.923 0 0 1 -9.523-62.4q0-2.087.039-4.164a8 8 0 0 1 8-7.836h.161a8.007 8.007 0 0 1 7.836 8.164l-.036 3.836a191.957 191.957 0 0 0 8.789 57.6 8 8 0 0 1 -7.637 10.4z"/><path d="m400 296.789a8 8 0 0 1 -7.578-10.57 143.738 143.738 0 0 0 7.578-46.219 8 8 0 0 1 16 0 159.725 159.725 0 0 1 -8.422 51.359 8.006 8.006 0 0 1 -7.578 5.43z"/><path d="m403.7 212a8 8 0 0 1 -7.766-6.109 142.51 142.51 0 0 0 -26.25-54.282 8 8 0 0 1 12.625-9.828 158.343 158.343 0 0 1 29.172 60.328 8 8 0 0 1 -5.886 9.664 7.865 7.865 0 0 1 -1.895.227z"/><path d="m352 130.148a7.968 7.968 0 0 1 -5.051-1.8 144.923 144.923 0 0 0 -22.749-15.207 8 8 0 1 1 7.6-14.079 160.761 160.761 0 0 1 25.258 16.883 8 8 0 0 1 -5.059 14.2z"/><path d="m157.777 132a8 8 0 0 1 -5.175-14.1 160.464 160.464 0 0 1 27.6-18.836 8 8 0 1 1 7.594 14.079 144.619 144.619 0 0 0 -24.851 16.957 7.967 7.967 0 0 1 -5.168 1.9z"/><path d="m108.3 212a7.865 7.865 0 0 1 -1.895-.227 7.994 7.994 0 0 1 -5.886-9.656 158.958 158.958 0 0 1 12.355-33.7 8 8 0 0 1 14.305 7.172 143.15 143.15 0 0 0 -11.114 30.3 8 8 0 0 1 -7.765 6.111z"/><path d="m110.461 292a8 8 0 0 1 -7.656-5.688 160.188 160.188 0 0 1 -6.805-46.312 8 8 0 0 1 16 0 144.124 144.124 0 0 0 6.125 41.688 8.008 8.008 0 0 1 -7.664 10.312z"/></g><path d="m320 208 48 96 59.539 33.077a19.527 19.527 0 0 1 9.665 20.9 19.529 19.529 0 0 1 -28.5 13.315l-64.704-35.292-24-48-8-8z" fill="#fad7be"/><path d="m192 207.837-48 96-59.539 33.077a19.529 19.529 0 0 0 -9.665 20.9 19.529 19.529 0 0 0 28.5 13.314l64.704-35.291 24-48 8-1.837z" fill="#fad7be"/><path d="m304 392h-96v-64l-16-40v-80h128v80l-16 40z" fill="#fdb62f"/><path d="m368.022 464h-224.044a39.978 39.978 0 0 1 -39.978-39.978v-.037a39.978 39.978 0 0 1 39.985-39.978l224.043.036a39.979 39.979 0 0 1 39.972 39.979 39.978 39.978 0 0 1 -39.978 39.978z" fill="#f5b02e"/><path d="m240.008 432c-.266 0-.531-.016-.805-.039l-80-8a8 8 0 1 1 1.594-15.922l80 8a8 8 0 0 1 -.789 15.961z" fill="#ec9e15"/><path d="m152 464v-17.389a16 16 0 0 1 14.551-15.934l49.449-4.5v37.823z" fill="#fad7be"/><path d="m327.277 408.031-112 10.18a8 8 0 0 0 -7.277 7.969v37.82h16v-30.516l104.723-9.515a8 8 0 1 0 -1.446-15.938z" fill="#ec9e15"/><path d="m456.9 185.926a8 8 0 1 0 -15.453 4.148 193.377 193.377 0 0 1 -1.125 103.864 8 8 0 1 0 15.359 4.486 209.387 209.387 0 0 0 1.219-112.5z"/><path d="m317.442 58.039a193 193 0 0 1 112.858 101.324 8 8 0 1 0 14.516-6.728 209.065 209.065 0 0 0 -122.257-109.756 8 8 0 1 0 -5.117 15.16z"/><path d="m232.949 49.368a195.453 195.453 0 0 1 53.782 1.076 8 8 0 1 0 2.539-15.8 211.468 211.468 0 0 0 -58.22-1.166 8 8 0 1 0 1.9 15.887z"/><path d="m144.007 82.278a7.963 7.963 0 0 0 4.478-1.377 191.367 191.367 0 0 1 46.073-22.862 8 8 0 0 0 -5.118-15.16 207.363 207.363 0 0 0 -49.926 24.774 8 8 0 0 0 4.493 14.625z"/><path d="m57.8 211.871a7.994 7.994 0 0 0 9.3-6.44 191.954 191.954 0 0 1 38.243-84.471 8 8 0 0 0 -12.543-9.928 208.036 208.036 0 0 0 -41.44 91.537 8 8 0 0 0 6.44 9.302z"/><path d="m72.788 297.6a192.012 192.012 0 0 1 -8.788-57.6q0-1.928.038-3.845a8 8 0 0 0 -7.838-8.155c-.053 0-.106 0-.159 0a8 8 0 0 0 -8 7.845q-.041 2.073-.041 4.155a207.985 207.985 0 0 0 9.523 62.4 8 8 0 1 0 15.265-4.8z"/><path d="m397.434 296.367a7.991 7.991 0 0 0 10.143-5.011 159.735 159.735 0 0 0 8.423-51.356 8 8 0 0 0 -16 0 143.767 143.767 0 0 1 -7.577 46.224 8 8 0 0 0 5.011 10.143z"/><path d="m403.705 212a8.007 8.007 0 0 0 7.78-9.89 158.445 158.445 0 0 0 -29.172-60.332 8 8 0 0 0 -12.624 9.83 142.577 142.577 0 0 1 26.249 54.278 8 8 0 0 0 7.767 6.114z"/><path d="m331.8 99.059a8 8 0 0 0 -7.59 14.086 144.518 144.518 0 0 1 22.739 15.2 8 8 0 0 0 10.113-12.4 160.621 160.621 0 0 0 -25.262-16.886z"/><path d="m180.2 99.059a160.537 160.537 0 0 0 -27.6 18.841 8 8 0 0 0 10.346 12.2 144.47 144.47 0 0 1 24.846-16.955 8 8 0 1 0 -7.59-14.086z"/><path d="m106.4 216.535a7.989 7.989 0 0 0 9.661-5.887 143.249 143.249 0 0 1 11.112-30.3 8 8 0 1 0 -14.3-7.168 159.131 159.131 0 0 0 -12.355 33.7 8 8 0 0 0 5.882 9.655z"/><path d="m104 232a8 8 0 0 0 -8 8 160.141 160.141 0 0 0 6.807 46.313 8 8 0 0 0 15.318-4.625 144.112 144.112 0 0 1 -6.125-41.688 8 8 0 0 0 -8-8z"/><path d="m431.424 330.084-57.375-31.875-46.894-93.787c-.017-.034-.033-.055-.05-.088-.082-.16-.173-.314-.265-.468-.021-.032-.041-.07-.061-.1a7.987 7.987 0 0 0 -6.779-3.766h-32v-18.083a55.964 55.964 0 0 0 24-45.917v-16a55.826 55.826 0 0 0 -16.508-39.663 7.933 7.933 0 0 0 -.629-.6 55.853 55.853 0 0 0 -77.711-.015 7.994 7.994 0 0 0 -.74.706 55.827 55.827 0 0 0 -16.412 39.572v16a55.964 55.964 0 0 0 24 45.917v18.083h-32a7.969 7.969 0 0 0 -5.86 2.567 4 4 0 0 0 -1.295 1.692l-46.894 93.787-57.375 31.875a27.529 27.529 0 0 0 26.552 48.232l64.7-35.293a7.994 7.994 0 0 0 3.324-3.445l16-31.994 8.848 22.12v46.475l-56.014-.009h-.008a48 48 0 0 0 0 95.993h224.044a47.978 47.978 0 0 0 .008-95.956l-56.03-.009v-46.494l8.812-22.029 16.033 32.066a7.994 7.994 0 0 0 3.324 3.445l64.7 35.293a27.529 27.529 0 0 0 26.551-48.232zm-269.457-.068-62.5 34.09a11.529 11.529 0 0 1 -11.119-20.2l59.538-33.077a8 8 0 0 0 3.27-3.415l32.844-65.688v44.222zm114.607-244.3a45.718 45.718 0 0 1 -41.15 0 39.909 39.909 0 0 1 41.15 0zm-60.574 50.284v-16a39.766 39.766 0 0 1 7.2-22.85 61.725 61.725 0 0 0 65.606 0 39.766 39.766 0 0 1 7.194 22.85v16a40 40 0 0 1 -80 0zm24 53.659a55.848 55.848 0 0 0 32 0v10.341h-32zm-72.725 248.985 40.725-3.7v21.056h-48v-9.389a7.961 7.961 0 0 1 7.275-7.967zm232.725-14.623a32.015 32.015 0 0 1 -31.978 31.979h-144.022v-22.513l16.716-1.519.088-.009 87.92-7.992a8 8 0 1 0 -1.448-15.934l-87.241 7.931-79.235-7.924a8 8 0 1 0 -1.592 15.92l.689.069a23.852 23.852 0 0 0 -15.897 22.582v9.389h-.022a32 32 0 0 1 0-63.993l224.044.037a32.015 32.015 0 0 1 31.978 31.977zm-88-137.562-15.428 38.57a8 8 0 0 0 -.572 2.971v48.032l-80-.013v-48.019a8 8 0 0 0 -.572-2.971l-15.428-38.57v-70.459h112zm117.359 69.951a11.528 11.528 0 0 1 -16.825 7.86l-62.5-34.091-22.034-44.068v-44.222l32.845 65.689a8 8 0 0 0 3.27 3.415l59.539 33.077a11.492 11.492 0 0 1 5.705 12.34z"/><path d="m240 136h8v16a8 8 0 0 0 16 0v-24a8 8 0 0 0 -8-8h-16a8 8 0 0 0 0 16z"/></g></svg>