<?xml version="1.0" encoding="iso-8859-1"?>
<!-- Generator: Adobe Illustrator 21.0.0, SVG Export Plug-In . SVG Version: 6.00 Build 0)  -->
<svg xmlns="http://www.w3.org/2000/svg" xmlns:xlink="http://www.w3.org/1999/xlink" version="1.1" id="Capa_1" x="0px" y="0px" viewBox="0 0 512 512" style="enable-background:new 0 0 512 512;" xml:space="preserve" width="512" height="512">
<g>
	<path style="fill:#25C191;" d="M245,22C109.69,22,0,131.69,0,267c0,101.52,61.747,188.617,149.733,225.787v0l52.706,15.521   C216.263,510.729,230.483,512,245,512c4.483,0,8.935-0.129,13.358-0.366l0,0l54.288-9.099C415.054,473.177,490,378.844,490,267   C490,131.69,380.31,22,245,22z"/>
	<path style="fill:#F9BD91;" d="M254.745,156.79c-0.457-0.043-0.922-0.057-1.387-0.071c-0.242-0.015-0.428-0.025-0.489-0.025h-0.076   c-2.658,0-4.814-2.155-4.814-4.813v-14.289c-3.77,3.501-8.131,6.375-12.928,8.441c-3.936,1.695-8.447,1.689-12.369,0   c-4.839-2.084-9.235-4.991-13.027-8.535v14.383c0,2.658-4.812,4.813-4.813,4.813c-0.093,0-0.183,0.013-0.276,0.014   c0.004,0.005,0.007,0.012,0.011,0.017c-1.038,0.122-5.136,0.611-7.52,0.977c0.93,0.66,1.638,1.632,1.95,2.798   c3.456,12.92,12.053,23.722,23.598,30.028c4.384,2.395,9.717,2.395,14.101,0c11.545-6.306,20.142-17.108,23.599-30.028   c0.361-1.35,1.243-2.452,2.399-3.095c-2.418-0.186-5.881-0.447-7.992-0.595C254.723,156.804,254.734,156.795,254.745,156.79z"/>
	<path style="fill:#EAA77A;" d="M220.361,189.219c8.559-11.068,9.939-30.351,9.905-41.988c-2.571,0.229-5.188-0.167-7.585-1.199   c-4.839-2.084-9.235-4.991-13.027-8.535v14.383c0,2.658-4.812,4.813-4.813,4.813c-0.093,0-0.183,0.013-0.276,0.014   c0.004,0.005,0.007,0.012,0.011,0.017c-1.038,0.122-5.136,0.611-7.52,0.977c0.93,0.66,1.638,1.632,1.95,2.798   C202.235,172.568,209.95,182.785,220.361,189.219z"/>
	<path style="fill:#FCD2AE;" d="M271.759,322.85l-3.173-0.19c-25.457,6.958-52.314,6.964-77.774,0.022l-2.81,0.169   c0,0,1.972,13.548-1.894,34.511l0.628,0.903c28.168,8.294,58.121,8.294,86.289,0l0.628-0.903   C269.787,336.398,271.759,322.85,271.759,322.85z"/>
	<path style="fill:#F9BD91;" d="M221.469,327.638c-10.322-0.574-20.599-2.214-30.657-4.956l-2.81,0.169   c0,0,1.972,13.548-1.894,34.511l0.628,0.903c10.734,3.16,21.727,5.108,32.782,5.86C221.337,351.1,221.563,336.705,221.469,327.638z   "/>
	<path style="fill:#F9BD91;" d="M371.678,257.232c-3.421,0-6.887-0.873-10.061-2.711l-97.481-56.445   c-9.614-5.567-12.895-17.873-7.328-27.486c5.567-9.614,17.873-12.896,27.487-7.328l97.481,56.445   c9.614,5.567,12.895,17.873,7.328,27.486C385.375,253.634,378.621,257.232,371.678,257.232z"/>
	<path style="fill:#F9BD91;" d="M90.769,257.232c-6.633,0-13.127-3.278-16.965-9.282c-5.985-9.359-3.249-21.798,6.11-27.783   l88.274-56.445c9.359-5.982,21.798-3.249,27.783,6.111c5.985,9.359,3.249,21.798-6.11,27.783l-88.275,56.445   C98.231,256.206,94.478,257.232,90.769,257.232z"/>
	<path style="fill:#6393E4;" d="M351.353,200.324l-64.387-40.623c-3.014-1.902-6.506-2.911-10.07-2.911H263.53   c-2.153,0-4.001,1.469-4.557,3.549c-3.306,12.358-11.529,22.691-22.572,28.723c-4.194,2.291-9.295,2.291-13.488,0   c-11.043-6.032-19.267-16.364-22.572-28.723c-0.557-2.08-2.404-3.549-4.557-3.549h-13.366c-3.564,0-7.056,1.009-10.07,2.911   l-64.387,40.623c-2.871,1.811-3.696,5.626-1.831,8.462l18.423,28.003c1.711,2.601,5.113,3.483,7.873,2.043l38.729-20.219   c1.41-0.736,3.098,0.287,3.098,1.878v4.503c0,9.161,2.052,18.205,6.004,26.469l4.053,8.474l3.245,62.915l0,0l0,0   c27.393,8.706,56.812,8.706,84.205,0l0.001,0l3.244-62.915l4.055-8.479c3.951-8.262,6.002-17.303,6.002-26.461v-4.505   c0-1.591,1.688-2.614,3.098-1.878l38.729,20.219c2.76,1.441,6.162,0.558,7.873-2.043l18.423-28.003   C355.048,205.95,354.223,202.135,351.353,200.324z"/>
	<path style="fill:#5D80D3;" d="M132.424,238.831l38.729-20.219c1.41-0.736,3.098,0.287,3.098,1.878v4.503   c0,9.161,2.052,18.205,6.004,26.469l4.053,8.474l3.245,62.915l0,0c10.913,3.468,22.149,5.531,33.448,6.236   c0.657-33.66,6.302-64.144-3.599-84.842c-16-33.449,2.959-55.024,2.959-55.024l-0.065-1.715   c-9.718-6.17-16.919-15.807-19.958-27.166c-0.557-2.08-2.404-3.549-4.557-3.549h-13.366c-3.564,0-7.056,1.009-10.07,2.911   l-64.387,40.623c-2.871,1.811-3.696,5.626-1.83,8.462l18.423,28.003C126.262,239.389,129.665,240.272,132.424,238.831z"/>
	<path style="fill:#FF738D;" d="M273.653,357.361c-28.504,8.893-59.04,8.893-87.544,0l-36.375,135.426   c16.703,7.056,34.355,12.306,52.706,15.521l24.165-77.493c1.002-3.213,5.548-3.213,6.55,0l25.203,80.819   c18.732-1.007,36.905-4.116,54.288-9.099L273.653,357.361z"/>
	<path style="fill:#FCD2AE;" d="M230.988,257.426c-0.883-11.073-10.575-19.348-21.651-18.45l-4.606,0.368   c0.691-2.833,0.714-6.363-2.008-9.085c-3.96-3.96-11.52,4.778-15.275,9.725l-91.933-22.411   c-10.791-2.632-21.676,3.985-24.306,14.779c-2.631,10.792,3.985,21.675,14.779,24.307l97.471,23.761   c1.601,0.39,3.202,0.576,4.78,0.576c0.869,0,1.726-0.074,2.575-0.184l21.723-1.733C223.61,278.194,231.872,268.5,230.988,257.426z"/>
	<path style="fill:#383C6B;" d="M228.817,18.501c7.586,0,14.022,1.422,19.44,3.613c0.153-0.963,0.233-1.95,0.233-2.955   C248.49,8.578,239.682,0,228.817,0c-10.865,0-19.673,8.578-19.673,19.159c0,1.005,0.08,1.992,0.233,2.955   C214.794,19.923,221.231,18.501,228.817,18.501z"/>
	<path style="fill:#383C6B;" d="M228.817,18.501c7.586,0,14.022,1.422,19.44,3.613c0.153-0.963,0.233-1.95,0.233-2.955   C248.49,8.578,239.682,0,228.817,0c-10.865,0-19.673,8.578-19.673,19.159c0,1.005,0.08,1.992,0.233,2.955   C214.794,19.923,221.231,18.501,228.817,18.501z"/>
	<path style="fill:#2B3160;" d="M223.164,9.116c0-3.927,2.184-7.343,5.402-9.103c-10.749,0.132-19.423,8.648-19.423,19.147   c0,1.005,0.08,1.992,0.233,2.955c5.418-2.191,11.854-3.613,19.44-3.613c0.117,0,0.229,0.007,0.345,0.008   C225.623,16.858,223.164,13.279,223.164,9.116z"/>
	<path style="fill:#474979;" d="M190.37,77.348L190.37,77.348c0.55-1.754,1.303-3.908,2.322-5.026   c0.917-1.006,1.492-2.251,1.533-3.582c0.238-7.778,3.308-31.745,32.787-20.74c1.158,0.432,2.451,0.432,3.61,0   c29.479-11.005,32.549,12.962,32.787,20.74c0.041,1.331,0.616,2.576,1.533,3.582c1.018,1.118,1.771,3.272,2.322,5.026l0,0   c1.494-0.969,3.812-1.638,5.908-1.59l0.001-0.006V57.47c0-14.305-8.189-27.562-21.477-34.239c-6.07-3.05-13.619-5.167-22.878-5.167   s-16.808,2.117-22.878,5.167c-13.288,6.677-21.477,19.934-21.477,34.239v18.282l0.001,0.006   C186.558,75.71,188.877,76.379,190.37,77.348z"/>
	<path style="fill:#383C6B;" d="M216.849,33.574c0-7.04,4.383-13.044,10.563-15.469c-8.613,0.205-15.717,2.234-21.473,5.126   c-13.288,6.677-21.477,19.934-21.477,34.239v18.282l0,0.006c2.096-0.048,4.415,0.621,5.908,1.59v0   c0.55-1.754,1.304-3.909,2.322-5.026c0.917-1.006,1.492-2.251,1.533-3.582c0.228-7.451,3.072-29.739,29.229-21.923   C219.448,43.782,216.849,38.987,216.849,33.574z"/>
	<path style="fill:#F9BD91;" d="M190.005,100.37c0,0-2.406-14.827,0.365-23.658c-2.514-1.632-7.372-2.429-9.556-0.349   c-4.473,4.258-1.196,10.689,0.373,14.751c0.481,1.247,0.792,2.509,0.933,3.773c0.305,2.746,1.834,6.765,8.173,6.67   C190.197,101.162,190.099,100.772,190.005,100.37z"/>
	<path style="fill:#EAA77A;" d="M189.044,88.726c-1.22,0.969-2.76,1.552-4.439,1.552c-1.637,0-3.14-0.556-4.345-1.482   c0.327,0.828,0.652,1.611,0.926,2.318c0.481,1.247,0.792,2.509,0.933,3.773c0.305,2.746,1.834,6.765,8.173,6.67   c-0.096-0.396-0.194-0.785-0.288-1.187C190.005,100.37,189.129,94.957,189.044,88.726z"/>
	<path style="fill:#F9BD91;" d="M276.82,76.363c-2.185-2.08-7.042-1.283-9.556,0.349c2.771,8.83,0.365,23.658,0.365,23.658   c-0.094,0.402-0.192,0.792-0.288,1.187c6.339,0.095,7.868-3.924,8.173-6.67c0.141-1.264,0.451-2.525,0.933-3.773   C278.015,87.052,281.293,80.622,276.82,76.363z"/>
	<path style="fill:#EAA77A;" d="M273.131,90.278c-1.724,0-3.306-0.611-4.54-1.628c-0.078,6.263-0.962,11.72-0.962,11.72   c-0.094,0.402-0.192,0.792-0.288,1.187c6.34,0.095,7.868-3.924,8.173-6.67c0.141-1.264,0.451-2.525,0.932-3.773   c0.261-0.676,0.57-1.422,0.882-2.209C276.15,89.765,274.702,90.278,273.131,90.278z"/>
	<path style="fill:#FCD2AE;" d="M265.173,72.282c-0.921-1.006-1.499-2.252-1.54-3.584c-0.24-7.782-3.325-31.762-32.951-20.751   c-1.164,0.433-2.463,0.433-3.628,0c-29.626-11.011-32.711,12.969-32.951,20.751c-0.041,1.332-0.619,2.577-1.54,3.584   c-6.176,6.747-2.7,28.063-2.7,28.063c2.954,12.637,7.069,22.024,11.221,28.915c4.913,8.153,12.471,14.504,21.433,18.263   c4.026,1.689,8.659,1.695,12.701,0c8.962-3.759,16.519-10.111,21.433-18.263c4.153-6.891,8.268-16.278,11.222-28.915   C267.873,100.344,271.348,79.029,265.173,72.282z"/>
	<path style="fill:#F9BD91;" d="M219.701,129.259c-3.012-6.891-5.997-16.278-8.139-28.915c0,0-2.521-21.316,1.958-28.063   c0.668-1.006,1.087-2.252,1.117-3.584c0.117-5.225,1.174-17.741,8.355-22.075c-25.835-7.401-28.66,14.667-28.888,22.075   c-0.041,1.332-0.619,2.577-1.54,3.584c-6.176,6.747-2.7,28.063-2.7,28.063c2.954,12.637,7.069,22.024,11.222,28.915   c4.913,8.152,12.471,14.504,21.433,18.263c4.026,1.689,8.658,1.695,12.701,0c0.005-0.002,0.01-0.005,0.016-0.007   C228.739,143.756,223.262,137.407,219.701,129.259z"/>
	<path style="fill:#F9BD91;" d="M97.986,243.888c0-10.429,7.167-19.181,16.844-21.608l-19.315-4.709   c-10.791-2.632-21.676,3.985-24.306,14.779c-2.631,10.792,3.985,21.675,14.779,24.307l20.999,5.119   C101.525,257.716,97.986,251.216,97.986,243.888z"/>
	<path style="fill:#FCD2AE;" d="M511.935,257.427c-0.884-11.074-10.577-19.35-21.651-18.452l-7.856,0.627   c0.753-2.875,0.865-6.538-1.941-9.345c-3.791-3.791-10.88,4.054-14.773,9.071l-89.252-21.758   c-10.792-2.632-21.676,3.985-24.307,14.779c-2.631,10.792,3.985,21.675,14.779,24.307l97.471,23.761   c2.564,0.625,4.902,0.711,7.355,0.392l21.724-1.733C504.558,278.194,512.819,268.5,511.935,257.427z"/>
	<path style="fill:#F9BD91;" d="M369.537,242.938c0-11.551,8.791-21.048,20.048-22.167l-13.123-3.199   c-10.792-2.632-21.676,3.985-24.307,14.779c-2.631,10.792,3.985,21.675,14.779,24.307l9.399,2.291   C372.145,254.898,369.537,249.224,369.537,242.938z"/>
	<path style="fill:#FF3C63;" d="M189.989,483.276c-15.616,0-28.511-11.616-30.536-26.678l-9.72,36.189   c16.703,7.056,34.355,12.306,52.706,15.521l11.287-36.196C208.074,478.931,199.539,483.276,189.989,483.276z"/>
	<path style="fill:#FF3C63;" d="M299.996,455.44c-1.502,15.621-14.66,27.836-30.674,27.836c-9.164,0-17.39-4.004-23.036-10.354   l12.072,38.711c18.732-1.007,36.905-4.116,54.288-9.099L299.996,455.44z"/>
</g>















</svg>
